<svg xmlns="http://www.w3.org/2000/svg" width="95" height="28" viewBox="0 0 95 28">
    <defs>
        <radialGradient id="prefix__a" cx="58.665%" cy="75.25%" r="104.876%" fx="58.665%" fy="75.25%" gradientTransform="matrix(1 0 0 .71808 0 .212)">
            <stop offset="5%" stop-color="#FBAE17"/>
            <stop offset="17.4%" stop-color="#F6921E"/>
            <stop offset="40%" stop-color="#F16522"/>
            <stop offset="63%" stop-color="#D71921"/>
            <stop offset="79.7%" stop-color="#C3161C"/>
            <stop offset="95.6%" stop-color="#B01117"/>
        </radialGradient>
    </defs>
    <g fill="none" fill-rule="evenodd">
        <g>
            <path fill="#FF6400" d="M3.162 0h15.812c1.746 0 3.162 1.433 3.162 3.2V8c0 1.767-1.416 3.2-3.162 3.2H3.162C1.416 11.2 0 9.767 0 8V3.2C0 1.433 1.416 0 3.162 0" transform="translate(72.864 11.2)"/>
            <path fill="#FFF" d="M10.21 6.952H8.682v-3.38c0-.16-.129-.29-.287-.29h-.572c-.158 0-.286.13-.286.29v4.056c0 .16.128.29.286.29h2.385c.158 0 .287-.13.287-.29V7.24c0-.16-.129-.29-.287-.29M5.105 5.503H4.58V4.248h.525c.342 0 .62.281.62.628 0 .346-.278.627-.62.627m.19-2.22H3.721c-.118 0-.22.073-.264.177-.014.034-.022.072-.022.112v4.056c0 .16.128.29.286.29h.573c.158 0 .286-.13.286-.29V6.469h.715c.87 0 1.575-.713 1.575-1.593s-.705-1.593-1.575-1.593M14.503 3.283h-.573c-.158 0-.286.13-.286.29v2.58c0 .411-.307.77-.712.797-.445.03-.814-.327-.814-.77V3.571c0-.16-.129-.29-.287-.29h-.572c-.158 0-.286.13-.286.29v2.465c0 1.047.804 1.938 1.838 1.976 1.086.039 1.978-.84 1.978-1.93v-2.51c0-.16-.128-.29-.286-.29M18.644 5.941c-.1-.16-.228-.298-.378-.408-.152-.112-.317-.204-.492-.274-.176-.072-.34-.14-.49-.206-.134-.055-.26-.125-.379-.209-.095-.061-.152-.167-.152-.28 0-.092.043-.178.116-.232.116-.074.252-.107.388-.095.136-.002.27.02.398.069.114.043.225.092.333.147.08.045.17.069.262.068.084-.002.158-.066.223-.192l.155-.307c.044-.08.062-.173.051-.264-.021-.094-.08-.175-.161-.226-.157-.1-.327-.177-.504-.231-.24-.079-.491-.118-.744-.115-.221-.001-.442.033-.653.102-.191.06-.37.16-.523.29-.147.125-.266.28-.35.454-.085.182-.128.382-.125.584-.008.214.045.425.152.61.1.16.23.3.381.411.152.114.317.21.491.284.177.077.34.148.492.216.133.058.26.132.378.219.093.06.15.165.152.277 0 .092-.045.179-.12.232-.11.071-.24.105-.372.094-.093.001-.187-.01-.278-.032-.08-.02-.16-.047-.236-.082-.07-.033-.133-.064-.187-.095l-.139-.081c-.082-.055-.18-.081-.278-.075-.091.02-.169.08-.213.163l-.2.294c-.038.048-.065.104-.081.163-.011.044-.011.09 0 .134.01.04.029.078.054.11.027.034.057.063.091.089.076.058.157.11.242.153.11.059.225.109.343.15.135.048.273.086.414.115.154.032.31.048.468.049.236.003.47-.036.692-.118.19-.07.363-.178.51-.317.137-.13.244-.288.314-.463.072-.18.108-.371.107-.565.007-.214-.045-.425-.152-.61" transform="translate(72.864 11.2)"/>
        </g>
        <path fill="url(#prefix__a)" fill-rule="nonzero" d="M18.74 10.733c-.52-1.646.586-3.687.586-3.687s-.521 0-1.822 1.185c-.777.683-1.245 1.656-1.299 2.696-1.496-3.556-4.555-5.86-5.726-7.44C9.37 2.04 10.151 0 10.151 0 7.873.988 6.702 3.49 6.31 6.453 6.22 8.08 5.407 9.58 4.1 10.535 3.774 7.77.716 7.045.716 7.045c.65.198 1.757 3.424.586 5.729-.8 1.5-1.246 3.168-1.302 4.873 0 5.53 3.449 10.008 9.89 10.008 2.654.083 5.224-.943 7.107-2.836 1.883-1.893 2.913-4.487 2.85-7.172.13-1.976-.586-5.202-1.107-6.914z"/>
        <path fill="#231F20" d="M3.578 18.305c.036 3.538 2.88 6.386 6.377 6.386 3.496 0 6.34-2.848 6.377-6.386h1.041c-.055 4.106-3.36 7.405-7.418 7.405s-7.362-3.3-7.418-7.405zm9.892-3.95c.754 0 1.366.884 1.366 1.975 0 1.09-.612 1.975-1.366 1.975-.755 0-1.367-.885-1.367-1.975 0-1.091.612-1.976 1.367-1.976zm-7.028 0c.755 0 1.367.884 1.367 1.975 0 1.09-.612 1.975-1.367 1.975s-1.366-.885-1.366-1.975c0-1.091.611-1.976 1.366-1.976z"/>
        <g fill="#40474F">
            <path d="M36.181 5.957c.964.239 1.829.749 2.46 1.497.566.885.766 1.973.6 2.994-.134 1.157-.466 2.313-.666 3.47-.064.563-.106 1.132-.06 1.698.045.539.072 1.033-.172 1.534-.5.646-1.43.783-2.095.272-.133-.068-.2-.204-.266-.272-.2-.34-.4-.68-.599-1.055-1.03.545-2.195.783-3.325.68-.865-.135-1.663-.51-2.328-1.054-.765-.612-1.197-1.599-1.13-2.585.033-.953.465-1.871 1.196-2.45.477-.376 1.128-.588 1.716-.674.674-.1 1.367-.003 2.045-.008.565-.005 1.129-.03 1.693-.066l.798-.068v-.068c0-.204 0-.409-.066-.613-.29-.887-1.62-1.225-2.41-.988-.404.121-.75.346-1.115.546-.463.254-1.05.422-1.54.149-.361-.2-.58-.594-.646-1-.206-1.254 1.265-2.045 2.28-2.239 1.224-.234 2.441.007 3.63.3zM2.196 2.25c.466.17.798.578.931 1.055.233 1.19.366 2.415.466 3.606.2-.272.465-.476.731-.68 1.464-1.021 3.392-.987 4.822.102.665.68 1.13 1.565 1.264 2.517.2 1.157.532 4.763.598 5.342.1.544.034 1.088-.2 1.564-.398.749-1.296 1.055-2.094.749-.931-.409-1.03-1.633-1.03-2.45-.134-1.224-.2-2.381-.333-3.538-.133-.953-.333-2.177-1.464-2.143-.798.068-1.496.578-1.795 1.327-.1.51-.1.986-.067 1.496.067.613.266 2.79.333 3.335.066.442.1.85.066 1.292-.133.817-.798 1.43-1.596 1.497-.399 0-.765-.136-1.03-.408-.333-.34-.533-.817-.6-1.293C1 14.462.269 5.923.069 4.767c-.1-.545-.1-1.089.067-1.633.166-.375.432-.647.798-.817.399-.204.864-.204 1.263-.068zm41.7 11.771c.443.573.602 1.312.345 2.008-.262.709-.952 1.13-1.661 1.247-.504.084-1.034.013-1.458-.292-.425-.306-.738-.771-.849-1.292-.085-.399-.052-.829.134-1.24.18-.395.469-.74.829-.975.898-.51 2.028-.272 2.66.544zM25.041 1.773c.798 0 1.53.544 1.73 1.36.066.409.066 1.055.132 1.634 0 0 .799 9.832.799 10.24.1.986-.532 1.87-1.464 2.041-1.463.068-1.729-1.055-1.862-1.769l-.731-10.24c-.067-.544-.067-1.089-.067-1.633.033-.85.632-1.531 1.463-1.633zM19.388 6.23c1.246.49 2.26 1.499 2.764 2.763.316.792.406 1.66.382 2.51-.006.206-.019.41-.04.61-.058.568-.183 1.113-.412 1.654-.226.533-.532 1.03-.906 1.47-.364.426-.823.875-1.322 1.13-1.663.85-3.625.817-5.288-.068-.83-.442-1.496-1.088-1.995-1.904-.565-.92-.798-2.008-.665-3.062 0-1.838.865-3.539 2.261-4.627 1.563-.987 3.492-1.157 5.221-.476zm16.228 5.885c-.485.042-.972.052-1.458.061-.774.013-2.2-.103-2.3 1.028-.031.353.146.711.416.924.665.524 1.966.347 2.544-.244.465-.476.765-1.089.798-1.769zM16.794 8.51c-.474.156-.917.658-1.164 1.08-.331.567-.475 1.288-.498 1.942-.013.355.02.71.1 1.056.155.685.451 1.275 1.104 1.579.67.312 1.471.212 2.055-.248.033 0 .066-.034.066-.068.29-.311.523-.674.696-1.065.258-.586.375-1.188.357-1.833-.01-.396-.065-.794-.202-1.164-.07-.188-.163-.361-.274-.517-.502-.698-1.385-1.042-2.24-.762zM45.625.582c.333.34.499.816.465 1.293.067.578 0 1.157-.132 1.701-.2 1.225-1.264 5.954-1.596 7.11-.1.51-.367.953-.732 1.293-.366.306-.898.374-1.33.136-.95-.389-.901-1.6-.83-2.517l.025-.322c.075-1 .134-2.002.205-3.002.084-1.183.167-2.368.302-3.545.02-.17.058-.344.065-.514.033-.884.565-1.667 1.33-2.04.765-.341 1.63-.171 2.228.407z" transform="translate(23.058 7.467)"/>
        </g>
    </g>
</svg>
