<svg xmlns="http://www.w3.org/2000/svg" width="43" height="30" viewBox="0 0 43 30">
    <defs>
        <radialGradient id="prefix__a" cx="58.665%" cy="75.25%" r="104.876%" fx="58.665%" fy="75.25%" gradientTransform="matrix(1 0 0 .72664 0 .206)">
            <stop offset="5%" stop-color="#FBAE17"/>
            <stop offset="17.4%" stop-color="#F6921E"/>
            <stop offset="40%" stop-color="#F16522"/>
            <stop offset="63%" stop-color="#D71921"/>
            <stop offset="79.7%" stop-color="#C3161C"/>
            <stop offset="95.6%" stop-color="#B01117"/>
        </radialGradient>
    </defs>
    <g fill="none" fill-rule="evenodd">
        <path fill="url(#prefix__a)" fill-rule="nonzero" d="M20.318 11.5c-.564-1.764.635-3.95.635-3.95s-.564 0-1.976 1.269c-.841.732-1.349 1.775-1.407 2.889-1.622-3.81-4.939-6.279-6.208-7.972C10.159 2.186 11.005 0 11.005 0 8.536 1.059 7.267 3.74 6.843 6.913c-.1 1.745-.981 3.352-2.398 4.375C4.092 8.325.776 7.548.776 7.548c.706.212 1.905 3.669.635 6.138C.544 15.294.061 17.081 0 18.907 0 24.833 3.74 29.63 10.723 29.63c2.877.089 5.663-1.01 7.705-3.038 2.042-2.029 3.16-4.808 3.09-7.685.14-2.116-.635-5.573-1.2-7.407z"/>
        <path fill="#231F20" d="M3.88 19.612c.039 3.79 3.123 6.843 6.913 6.843s6.875-3.052 6.914-6.843h1.129c-.06 4.4-3.643 7.934-8.042 7.934-4.4 0-7.983-3.535-8.043-7.934zm10.724-4.232c.818 0 1.482.947 1.482 2.116s-.664 2.116-1.482 2.116-1.481-.947-1.481-2.116.663-2.116 1.481-2.116zm-7.62 0c.819 0 1.482.947 1.482 2.116s-.663 2.116-1.481 2.116c-.819 0-1.482-.947-1.482-2.116s.663-2.116 1.482-2.116z"/>
        <g>
            <path fill="#FF6400" stroke="#FFF" stroke-width="2" d="M20.572 1H3.429c-.671 0-1.278.272-1.718.711C1.271 2.151 1 2.758 1 3.43V8.57c0 .671.272 1.278.711 1.718.44.44 1.047.711 1.718.711h17.143c.67 0 1.277-.272 1.717-.711.44-.44.711-1.047.711-1.718V3.43c0-.671-.272-1.278-.711-1.718-.44-.44-1.047-.711-1.717-.711z" transform="translate(18.5 12)"/>
            <path fill="#FFF" d="M11.069 7.448H9.414v-3.62c0-.172-.14-.31-.31-.31h-.621c-.172 0-.31.138-.31.31v4.344c0 .172.138.31.31.31h2.586c.171 0 .31-.138.31-.31V7.76c0-.172-.139-.31-.31-.31M5.535 5.897h-.57V4.552h.57c.37 0 .672.3.672.672 0 .372-.301.673-.672.673m.206-2.38H4.035c-.129 0-.24.078-.286.19-.016.037-.025.078-.025.12v4.345c0 .172.14.31.31.31h.621c.172 0 .31-.138.31-.31V6.931h.776c.943 0 1.707-.764 1.707-1.707 0-.943-.764-1.707-1.707-1.707M15.724 3.517h-.62c-.172 0-.31.14-.31.31v2.765c0 .441-.333.826-.773.854-.482.032-.883-.35-.883-.825V3.828c0-.172-.14-.31-.31-.31h-.621c-.171 0-.31.138-.31.31v2.64c0 1.121.872 2.077 1.993 2.117 1.177.042 2.145-.9 2.145-2.068v-2.69c0-.17-.14-.31-.31-.31M20.214 6.365c-.108-.17-.247-.319-.41-.437-.165-.12-.344-.218-.533-.293-.191-.077-.369-.15-.532-.22-.145-.06-.282-.135-.41-.225-.103-.065-.165-.179-.165-.3 0-.098.047-.19.126-.249.125-.078.273-.114.42-.101.148-.003.294.022.432.073.123.047.244.1.36.158.087.048.185.074.284.073.091-.002.172-.071.242-.206l.168-.329c.049-.086.068-.185.056-.283-.023-.1-.087-.188-.175-.241-.17-.107-.354-.19-.546-.249-.26-.084-.533-.125-.806-.122-.24-.002-.48.035-.708.108-.208.066-.4.172-.568.312-.16.133-.288.299-.378.486-.093.195-.14.41-.137.626-.008.229.049.456.165.654.109.171.249.32.413.44.165.122.344.224.533.304.191.082.369.159.532.231.145.063.283.142.41.235.101.065.163.176.165.297 0 .099-.049.191-.13.248-.12.077-.26.112-.402.101-.102.001-.203-.01-.302-.035-.088-.02-.173-.05-.256-.087-.077-.035-.145-.069-.203-.101l-.15-.088c-.09-.058-.196-.086-.302-.08-.099.022-.183.086-.231.175l-.218.314c-.04.052-.07.112-.087.175-.012.047-.012.096 0 .144.011.043.031.083.06.119.028.035.061.067.098.094.082.062.17.117.262.164.12.063.244.117.372.161.146.051.296.092.448.122.168.035.338.052.509.053.255.004.51-.038.75-.126.205-.075.393-.19.553-.34.148-.139.263-.308.34-.496.078-.192.117-.397.116-.605.008-.229-.05-.456-.165-.654" transform="translate(18.5 12)"/>
        </g>
    </g>
</svg>
