<?xml version="1.0" encoding="utf-8"?><svg width="98" height="73" viewBox="0 0 98 73" xmlns="http://www.w3.org/2000/svg" xmlns:xlink="http://www.w3.org/1999/xlink"><view id="adremover" viewBox="0 25 24 24"/><svg width="24" height="24" viewBox="0 0 24 24" y="25" xmlns="http://www.w3.org/2000/svg"><defs><linearGradient x1=".1%" y1="42.9%" x2="100.2%" y2="42.9%" id="aa"><stop stop-color="#D20000" offset="0%"/><stop stop-color="#D20814" stop-opacity="0" offset="100%"/></linearGradient><linearGradient x1="50%" y1="93.3%" x2="50%" y2="-7%" id="ab"><stop stop-color="#E6E6E6" offset="0%"/><stop stop-color="#FFF" offset="100%"/></linearGradient></defs><g fill="none" fill-rule="evenodd"><path d="M0 12C0 5.373 5.373 0 12 0s12 5.373 12 12-5.373 12-12 12C5.38 23.98.02 18.62 0 12"/><path d="M12.127.275L2.7 4.414v7.052a12.71 12.71 0 002.682 7.817c1.84 2.376 4.063 3.91 6.745 4.523 2.683-.613 4.906-2.147 6.745-4.523a12.405 12.405 0 002.683-7.817V4.414L12.127.275z" fill="#ED2A2F"/><path d="M9.427.275v23.607c2.683-.613 4.906-2.146 6.668-4.522 1.763-2.376 2.76-4.982 2.76-7.818V4.491L9.427.275z" fill="url(#aa)" fill-rule="nonzero" transform="translate(2.7)"/><path d="M11.153 6.588a1.503 1.503 0 00-1.456.996l-.766 1.61V2.372A1.085 1.085 0 007.935 1.3a1.033 1.033 0 00-1.073.996v4.752a.153.153 0 11-.306 0V1.222A1.085 1.085 0 005.558.15a1.033 1.033 0 00-1.073.996v5.901a.165.165 0 01-.153.154.165.165 0 01-.154-.154V2.372A1.085 1.085 0 003.182 1.3a1.033 1.033 0 00-1.073.996v4.752a.165.165 0 01-.153.154.165.165 0 01-.154-.154V4.288a.92.92 0 00-.843-.92.886.886 0 00-.92.92v7.358a4.979 4.979 0 004.752 4.982 5.039 5.039 0 004.523-2.836L11.69 7.89c.091-.191.144-.4.153-.612.076-.307-.154-.69-.69-.69zm-4.446 2.99a.944.944 0 01.768.995c0 .613-.306 1.073-.766 1.073a.944.944 0 01-.768-.996c0-.537.383-1.073.766-1.073v.001zm-2.76.996c0 .537-.306.996-.766.996a.944.944 0 01-.766-.996c0-.536.306-.996.766-.996s.767.459.767.995v.001zm.997 4.906a3.702 3.702 0 01-3.678-3.527h.613a3.098 3.098 0 003.065 2.911 3.046 3.046 0 003.066-2.911h.613a3.702 3.702 0 01-3.678 3.525l-.001.002z" transform="translate(7.028 3.423)" fill="url(#ab)" fill-rule="nonzero"/></g></svg><view id="adremover_gray" viewBox="24 25 24 24"/><svg width="24" height="24" viewBox="0 0 24 24" x="24" y="25" xmlns="http://www.w3.org/2000/svg"><defs><linearGradient x1=".927%" y1="42.9%" x2="100.2%" y2="42.9%" id="ba"><stop stop-color="#71859C" offset="0%"/><stop stop-color="#A3B5CA" stop-opacity="0" offset="100%"/></linearGradient><linearGradient x1="50%" y1="93.3%" x2="50%" y2="-7%" id="bb"><stop stop-color="#E6E6E6" offset="0%"/><stop stop-color="#FFF" offset="100%"/></linearGradient></defs><g fill="none" fill-rule="evenodd"><path d="M0 12C0 5.373 5.373 0 12 0s12 5.373 12 12-5.373 12-12 12C5.38 23.98.02 18.62 0 12"/><path d="M12.127.275L2.7 4.414v7.052a12.71 12.71 0 002.682 7.817c1.84 2.376 4.063 3.91 6.745 4.523 2.683-.613 4.906-2.147 6.745-4.523a12.405 12.405 0 002.683-7.817V4.414L12.127.275z" fill="#A3B5CA"/><path d="M9.427.275v23.607c2.683-.613 4.906-2.146 6.668-4.522 1.763-2.376 2.76-4.982 2.76-7.818V4.491L9.427.275z" fill="url(#ba)" fill-rule="nonzero" transform="translate(2.7)"/><path d="M11.153 6.588a1.503 1.503 0 00-1.456.996l-.766 1.61V2.372A1.085 1.085 0 007.935 1.3a1.033 1.033 0 00-1.073.996v4.752a.153.153 0 11-.306 0V1.222A1.085 1.085 0 005.558.15a1.033 1.033 0 00-1.073.996v5.901a.165.165 0 01-.153.154.165.165 0 01-.154-.154V2.372A1.085 1.085 0 003.182 1.3a1.033 1.033 0 00-1.073.996v4.752a.165.165 0 01-.153.154.165.165 0 01-.154-.154V4.288a.92.92 0 00-.843-.92.886.886 0 00-.92.92v7.358a4.979 4.979 0 004.752 4.982 5.039 5.039 0 004.523-2.836L11.69 7.89c.091-.191.144-.4.153-.612.076-.307-.154-.69-.69-.69zm-4.446 2.99a.944.944 0 01.768.995c0 .613-.306 1.073-.766 1.073a.944.944 0 01-.768-.996c0-.537.383-1.073.766-1.073v.001zm-2.76.996c0 .537-.306.996-.766.996a.944.944 0 01-.766-.996c0-.536.306-.996.766-.996s.767.459.767.995v.001zm.997 4.906a3.702 3.702 0 01-3.678-3.527h.613a3.098 3.098 0 003.065 2.911 3.046 3.046 0 003.066-2.911h.613a3.702 3.702 0 01-3.678 3.525l-.001.002z" transform="translate(7.028 3.423)" fill="url(#bb)" fill-rule="nonzero"/></g></svg><view id="android" viewBox="48 25 24 24"/><svg width="24" height="24" viewBox="0 0 24 24" x="48" y="25" xmlns="http://www.w3.org/2000/svg"><path d="M2.656 8.49c.289-.292.692-.438 1.1-.398.406-.021.803.123 1.1.4.292.288.439.691.4 1.1v6.997c.022.407-.122.804-.4 1.103-.288.29-.692.436-1.1.397a1.504 1.504 0 01-1.1-.397 1.666 1.666 0 01-.4-1.103V9.592c-.04-.41.108-.814.4-1.103zm13.1-6.3a5.55 5.55 0 012.5 4.8h-12a5.55 5.55 0 012.5-4.8L7.356.891c-.3-.203-.3-.403 0-.703a.418.418 0 01.7 0l1.5 1.5a5.19 5.19 0 012.7-.7 5.19 5.19 0 012.7.7l1.5-1.5a.483.483 0 01.7 0 .483.483 0 010 .7l-1.4 1.3zm-9.5 15.802V7.989h12v10.003a1.025 1.025 0 01-1 .997h-1v3.503a1.5 1.5 0 11-3 0v-3.503h-2v3.503a1.5 1.5 0 11-3 0v-3.503h-1a.907.907 0 01-.7-.3.907.907 0 01-.3-.697zm4-13.003v-1h-1v1h1zm5 0v-1h-1v1h1zm4.4 3.5a1.366 1.366 0 011.1-.4 1.384 1.384 0 011.5 1.5v7a1.5 1.5 0 11-3 0V9.592c-.039-.41.108-.814.4-1.103z" fill="#a3c829" fill-rule="evenodd"/></svg><view id="android_gray" viewBox="0 49 24 24"/><svg width="24" height="24" viewBox="0 0 24 24" y="49" xmlns="http://www.w3.org/2000/svg"><path d="M2.656 8.49c.289-.292.692-.438 1.1-.398.406-.021.803.123 1.1.4.292.288.439.691.4 1.1v6.997c.022.407-.122.804-.4 1.103-.288.29-.692.436-1.1.397a1.504 1.504 0 01-1.1-.397 1.666 1.666 0 01-.4-1.103V9.592c-.04-.41.108-.814.4-1.103zm13.1-6.3a5.55 5.55 0 012.5 4.8h-12a5.55 5.55 0 012.5-4.8L7.356.891c-.3-.203-.3-.403 0-.703a.418.418 0 01.7 0l1.5 1.5a5.19 5.19 0 012.7-.7 5.19 5.19 0 012.7.7l1.5-1.5a.483.483 0 01.7 0 .483.483 0 010 .7l-1.4 1.3zm-9.5 15.802V7.989h12v10.003a1.025 1.025 0 01-1 .997h-1v3.503a1.5 1.5 0 11-3 0v-3.503h-2v3.503a1.5 1.5 0 11-3 0v-3.503h-1a.907.907 0 01-.7-.3.907.907 0 01-.3-.697zm4-13.003v-1h-1v1h1zm5 0v-1h-1v1h1zm4.4 3.5a1.366 1.366 0 011.1-.4 1.384 1.384 0 011.5 1.5v7a1.5 1.5 0 11-3 0V9.592c-.039-.41.108-.814.4-1.103z" fill="#A3B5CA" fill-rule="evenodd"/></svg><view id="ios" viewBox="24 49 24 24"/><svg width="24" height="24" viewBox="0 0 24 24" x="24" y="49" xmlns="http://www.w3.org/2000/svg"><path d="M22.007 8.098a4.218 4.218 0 00-1.976 1.8 6.356 6.356 0 00-.79 2.799c-.01 1.13.298 2.24.888 3.2a4.023 4.023 0 002.371 1.899c-.33 1.105-.83 2.15-1.482 3.099a8.527 8.527 0 01-2.074 2.4 3.166 3.166 0 01-2.173.7 6.18 6.18 0 01-2.074-.5 4.82 4.82 0 00-1.778-.5c-.79.104-1.558.34-2.272.7-.444.165-.91.266-1.383.299a4.89 4.89 0 01-2.765-1.1 13.597 13.597 0 01-3.16-4.598 13.328 13.328 0 01-1.087-5.499 9.121 9.121 0 011.68-5.299 5.502 5.502 0 014.444-2.3 5.821 5.821 0 012.667.6 3.461 3.461 0 001.876.6 4.564 4.564 0 001.68-.3 10.085 10.085 0 012.864-.9 4.586 4.586 0 013.358 1.3c.48.464.88 1.004 1.186 1.6zm-9.68-2.7A5.615 5.615 0 0113.71 1.9 6.325 6.325 0 0117.068 0a5.985 5.985 0 01-1.383 3.8 4.321 4.321 0 01-3.358 1.599z" fill="#212121" fill-rule="evenodd"/></svg><view id="ios_gray" viewBox="48 49 24 24"/><svg width="24" height="24" viewBox="0 0 24 24" x="48" y="49" xmlns="http://www.w3.org/2000/svg"><path d="M22.007 8.098a4.218 4.218 0 00-1.976 1.8 6.356 6.356 0 00-.79 2.799c-.01 1.13.298 2.24.888 3.2a4.023 4.023 0 002.371 1.899c-.33 1.105-.83 2.15-1.482 3.099a8.527 8.527 0 01-2.074 2.4 3.166 3.166 0 01-2.173.7 6.18 6.18 0 01-2.074-.5 4.82 4.82 0 00-1.778-.5c-.79.104-1.558.34-2.272.7-.444.165-.91.266-1.383.299a4.89 4.89 0 01-2.765-1.1 13.597 13.597 0 01-3.16-4.598 13.328 13.328 0 01-1.087-5.499 9.121 9.121 0 011.68-5.299 5.502 5.502 0 014.444-2.3 5.821 5.821 0 012.667.6 3.461 3.461 0 001.876.6 4.564 4.564 0 001.68-.3 10.085 10.085 0 012.864-.9 4.586 4.586 0 013.358 1.3c.48.464.88 1.004 1.186 1.6zm-9.68-2.7A5.615 5.615 0 0113.71 1.9 6.325 6.325 0 0117.068 0a5.985 5.985 0 01-1.383 3.8 4.321 4.321 0 01-3.358 1.599z" fill="#A3B5CA" fill-rule="evenodd"/></svg><view id="mac" viewBox="74 0 24 24"/><svg width="24" height="24" viewBox="0 0 24 24" x="74" xmlns="http://www.w3.org/2000/svg"><path d="M12 0c6.62.02 11.98 5.38 12 12 0 6.627-5.373 12-12 12S0 18.627 0 12 5.373 0 12 0zm3.795 11.988L15.6 12c-1.4 0-2.4.8-2.4 2 0 1 .5 1.6 1.7 1.9l.8.2c.8.199 1.1.499 1.1 1 0 .6-.5.999-1.3.999a1.333 1.333 0 01-1.4-1H13c.1 1.2 1 2 2.5 2C17 19.1 18 18.3 18 17c0-1-.5-1.6-1.8-1.9l-.7-.2c-.8-.2-1.1-.4-1.1-.9 0-.6.5-1 1.2-1A1.222 1.222 0 0116.9 14H18a2.18 2.18 0 00-2.4-2zM9 12a3.5 3.5 0 100 7 3.543 3.543 0 003.5-3.5A3.5 3.5 0 009 12zM9 13.2a2.3 2.3 0 110 4.6 2.3 2.3 0 010-4.6zm8.77-7.508l-.17.008a2.001 2.001 0 00-2 2.2c0 1.4.8 2.2 2 2.2a1.685 1.685 0 001.8-1.6h-.9a.875.875 0 01-.9.8c-.6 0-1-.5-1-1.4 0-.9.4-1.4 1-1.4.45.022.825.355.9.8h.9a1.636 1.636 0 00-1.8-1.6zM13.3 5.8c-1.1 0-1.8.5-1.8 1.3h.9c0-.4.3-.6.8-.6a.713.713 0 01.8.7v.3l-1 .1c-1 0-1.6.5-1.6 1.2a1.167 1.167 0 001.4 1.2 1.56 1.56 0 001.3-.7v.7h.9V7.2c0-.9-.7-1.4-1.7-1.4zm-6.068 0h-.264c-.48.027-.904.339-1.068.8v-.7H5V10h1V7.5a.817.817 0 01.8-.9.632.632 0 01.7.7V10h1V7.4a.736.736 0 01.8-.8.713.713 0 01.7.8V10h1V7.2a1.367 1.367 0 00-1.4-1.4 1.34 1.34 0 00-1.3.8 1.206 1.206 0 00-1.2-.8zM14 8.1v.4a.923.923 0 01-1 .9.669.669 0 01-.7-.6c0-.4.2-.6.7-.6l1-.1z" fill="#000" fill-rule="evenodd"/></svg><view id="mac_gray" viewBox="74 24 24 24"/><svg width="24" height="24" viewBox="0 0 24 24" x="74" y="24" xmlns="http://www.w3.org/2000/svg"><path d="M12 0c6.62.02 11.98 5.38 12 12 0 6.627-5.373 12-12 12S0 18.627 0 12 5.373 0 12 0zm3.795 11.988L15.6 12c-1.4 0-2.4.8-2.4 2 0 1 .5 1.6 1.7 1.9l.8.2c.8.199 1.1.499 1.1 1 0 .6-.5.999-1.3.999a1.333 1.333 0 01-1.4-1H13c.1 1.2 1 2 2.5 2C17 19.1 18 18.3 18 17c0-1-.5-1.6-1.8-1.9l-.7-.2c-.8-.2-1.1-.4-1.1-.9 0-.6.5-1 1.2-1A1.222 1.222 0 0116.9 14H18a2.18 2.18 0 00-2.4-2zM9 12a3.5 3.5 0 100 7 3.543 3.543 0 003.5-3.5A3.5 3.5 0 009 12zM9 13.2a2.3 2.3 0 110 4.6 2.3 2.3 0 010-4.6zm8.77-7.508l-.17.008a2.001 2.001 0 00-2 2.2c0 1.4.8 2.2 2 2.2a1.685 1.685 0 001.8-1.6h-.9a.875.875 0 01-.9.8c-.6 0-1-.5-1-1.4 0-.9.4-1.4 1-1.4.45.022.825.355.9.8h.9a1.636 1.636 0 00-1.8-1.6zM13.3 5.8c-1.1 0-1.8.5-1.8 1.3h.9c0-.4.3-.6.8-.6a.713.713 0 01.8.7v.3l-1 .1c-1 0-1.6.5-1.6 1.2a1.167 1.167 0 001.4 1.2 1.56 1.56 0 001.3-.7v.7h.9V7.2c0-.9-.7-1.4-1.7-1.4zm-6.068 0h-.264c-.48.027-.904.339-1.068.8v-.7H5V10h1V7.5a.817.817 0 01.8-.9.632.632 0 01.7.7V10h1V7.4a.736.736 0 01.8-.8.713.713 0 01.7.8V10h1V7.2a1.367 1.367 0 00-1.4-1.4 1.34 1.34 0 00-1.3.8 1.206 1.206 0 00-1.2-.8zM14 8.1v.4a.923.923 0 01-1 .9.669.669 0 01-.7-.6c0-.4.2-.6.7-.6l1-.1z" fill="#A3B5CA" fill-rule="evenodd"/></svg><view id="plus" viewBox="0 0 37 25"/><svg width="37" height="25" viewBox="0 0 43 30" xmlns="http://www.w3.org/2000/svg"><defs><radialGradient id="ia" cx="58.665%" cy="75.25%" r="104.876%" fx="58.665%" fy="75.25%" gradientTransform="matrix(1 0 0 .72664 0 .206)"><stop offset="5%" stop-color="#FBAE17"/><stop offset="17.4%" stop-color="#F6921E"/><stop offset="40%" stop-color="#F16522"/><stop offset="63%" stop-color="#D71921"/><stop offset="79.7%" stop-color="#C3161C"/><stop offset="95.6%" stop-color="#B01117"/></radialGradient></defs><g fill="none" fill-rule="evenodd"><path fill="url(#ia)" fill-rule="nonzero" d="M20.318 11.5c-.564-1.764.635-3.95.635-3.95s-.564 0-1.976 1.269a4.114 4.114 0 00-1.407 2.889c-1.622-3.81-4.939-6.279-6.208-7.972C10.159 2.186 11.005 0 11.005 0 8.536 1.059 7.267 3.74 6.843 6.913a5.806 5.806 0 01-2.398 4.375C4.092 8.325.776 7.548.776 7.548c.706.212 1.905 3.669.635 6.138A11.834 11.834 0 000 18.907C0 24.833 3.74 29.63 10.723 29.63a10.474 10.474 0 0010.795-10.723c.14-2.116-.635-5.573-1.2-7.407z"/><path fill="#231F20" d="M3.88 19.612a6.914 6.914 0 0013.827 0h1.129a8.044 8.044 0 01-16.085 0zm10.724-4.232c.818 0 1.482.947 1.482 2.116s-.664 2.116-1.482 2.116-1.481-.947-1.481-2.116.663-2.116 1.481-2.116zm-7.62 0c.819 0 1.482.947 1.482 2.116s-.663 2.116-1.481 2.116c-.819 0-1.482-.947-1.482-2.116s.663-2.116 1.482-2.116z"/><path fill="#FF6400" stroke="#FFF" stroke-width="2" d="M39.072 13H21.929a2.425 2.425 0 00-2.429 2.43v5.14a2.425 2.425 0 002.429 2.429h17.143A2.424 2.424 0 0041.5 20.57v-5.14a2.425 2.425 0 00-2.428-2.429z"/><path fill="#FFF" d="M29.569 19.448h-1.655v-3.62a.31.31 0 00-.31-.31h-.621a.309.309 0 00-.31.31v4.344c0 .172.138.31.31.31h2.586a.31.31 0 00.31-.31v-.412a.31.31 0 00-.31-.31m-5.534-1.553h-.57v-1.345h.57a.672.672 0 010 1.345m.206-2.38h-1.706a.308.308 0 00-.311.31v4.345c0 .172.14.31.31.31h.621c.172 0 .31-.138.31-.31v-1.241h.776a1.707 1.707 0 100-3.414m9.983 0h-.62a.31.31 0 00-.31.31v2.765c0 .441-.333.826-.773.854a.827.827 0 01-.883-.825v-2.793a.31.31 0 00-.31-.31h-.621a.31.31 0 00-.31.31v2.64c0 1.121.872 2.077 1.993 2.117a2.07 2.07 0 002.145-2.068v-2.69c0-.17-.14-.31-.31-.31m4.489 2.848a1.596 1.596 0 00-.41-.437 2.428 2.428 0 00-.533-.293c-.191-.077-.369-.15-.532-.22a2.121 2.121 0 01-.41-.225.355.355 0 01-.165-.3c0-.098.047-.19.126-.249a.682.682 0 01.42-.101c.148-.003.294.022.432.073a4 4 0 01.36.158.578.578 0 00.284.073c.091-.002.172-.071.242-.206l.168-.329a.458.458 0 00.056-.283.384.384 0 00-.175-.241 2.283 2.283 0 00-.546-.249 2.535 2.535 0 00-.806-.122c-.24-.002-.48.035-.708.108a1.68 1.68 0 00-.568.312 1.411 1.411 0 00-.515 1.112 1.21 1.21 0 00.165.654c.109.171.249.32.413.44.165.122.344.224.533.304.191.082.369.159.532.231.145.063.283.142.41.235a.36.36 0 01.165.297.304.304 0 01-.13.248.648.648 0 01-.402.101 1.38 1.38 0 01-.558-.122 2.956 2.956 0 01-.203-.101l-.15-.088a.506.506 0 00-.302-.08.348.348 0 00-.231.175l-.218.314a.504.504 0 00-.087.175.292.292 0 000 .144.312.312 0 00.06.119.514.514 0 00.098.094c.082.062.17.117.262.164.12.063.244.117.372.161.146.051.296.092.448.122.168.035.338.052.509.053.255.004.51-.038.75-.126.205-.075.393-.19.553-.34.148-.139.263-.308.34-.496.078-.192.117-.397.116-.605a1.22 1.22 0 00-.165-.654"/></g></svg><view id="plus_gray" viewBox="37 0 37 25"/><svg width="37" height="25" viewBox="0 0 37 25" x="37" xmlns="http://www.w3.org/2000/svg"><defs><radialGradient cx="41.25%" cy="66.783%" fx="41.25%" fy="66.783%" r="81.028%" gradientTransform="matrix(1 0 0 .72664 0 .183)" id="ja"><stop stop-color="#D4E0EC" offset="0%"/><stop stop-color="#A3B5CA" offset="50%"/><stop stop-color="#65707C" offset="100%"/></radialGradient></defs><g fill="none" fill-rule="evenodd"><path d="M17.01 9.628c-.472-1.477.532-3.308.532-3.308s-.472 0-1.654 1.063a3.443 3.443 0 00-1.178 2.419c-1.358-3.19-4.135-5.257-5.198-6.674C8.505 1.83 9.214 0 9.214 0c-2.067.886-3.13 3.13-3.485 5.788A4.86 4.86 0 013.721 9.45C3.426 6.97.65 6.32.65 6.32c.59.177 1.594 3.07.531 5.138A9.894 9.894 0 000 15.83c0 4.962 3.13 8.978 8.978 8.978a8.77 8.77 0 009.037-8.978c.118-1.772-.532-4.666-1.004-6.201z" fill="url(#ja)" fill-rule="nonzero"/><path d="M3.248 16.42a5.789 5.789 0 0011.577 0h.945a6.734 6.734 0 01-13.467 0zm8.979-3.544c.685 0 1.24.793 1.24 1.772 0 .978-.555 1.772-1.24 1.772-.685 0-1.24-.794-1.24-1.772 0-.979.555-1.772 1.24-1.772zm-6.38 0c.686 0 1.24.793 1.24 1.772 0 .978-.554 1.772-1.24 1.772-.684 0-1.24-.794-1.24-1.772 0-.979.556-1.772 1.24-1.772z" fill="#231F20"/><path d="M32.711 11.047H18.359c-.517 0-.984.209-1.323.547a1.865 1.865 0 00-.548 1.323v4.306c0 .516.21.984.548 1.322.339.339.806.548 1.323.548H32.71c.517 0 .984-.21 1.323-.548.338-.338.547-.806.547-1.322v-4.306c0-.517-.209-.984-.547-1.323a1.864 1.864 0 00-1.323-.547z" stroke="#FFF" stroke-width="2" fill="#A3B5CA"/><path d="M24.755 16.282H23.37v-3.031a.26.26 0 00-.26-.26h-.52a.26.26 0 00-.26.26v3.638c0 .143.117.26.26.26h2.165a.26.26 0 00.26-.26v-.347a.26.26 0 00-.26-.26M20.122 14.983h-.476v-1.126h.476a.563.563 0 110 1.126m.173-1.992h-1.429a.26.26 0 00-.26.26v3.638c0 .143.117.26.26.26h.52a.26.26 0 00.26-.26v-1.04h.65a1.43 1.43 0 000-2.858M28.653 12.991h-.52a.26.26 0 00-.26.26v2.315c0 .369-.278.69-.646.715a.693.693 0 01-.74-.692v-2.338a.26.26 0 00-.26-.26h-.519a.26.26 0 00-.26.26v2.21c0 .94.73 1.74 1.67 1.773a1.732 1.732 0 001.795-1.731V13.25a.26.26 0 00-.26-.26M32.412 15.376a1.32 1.32 0 00-.344-.366 2.063 2.063 0 00-.446-.246c-.16-.065-.309-.126-.445-.185a1.805 1.805 0 01-.344-.187.3.3 0 01-.138-.252c0-.082.04-.16.106-.208a.568.568 0 01.352-.085.977.977 0 01.36.062c.105.039.205.083.303.132.073.04.154.061.238.061.076-.002.143-.06.202-.173l.14-.275a.389.389 0 00.048-.237.324.324 0 00-.147-.202 1.893 1.893 0 00-.457-.208 2.11 2.11 0 00-.675-.102 1.882 1.882 0 00-.593.09 1.398 1.398 0 00-.475.261 1.19 1.19 0 00-.431.93c-.007.193.04.383.138.549.09.143.208.268.346.368.138.102.287.188.446.255.16.068.309.133.446.193.12.053.236.119.343.196a.302.302 0 01.138.25c0 .082-.041.16-.109.207a.545.545 0 01-.337.085c-.085 0-.17-.01-.253-.03a1.24 1.24 0 01-.214-.072 2.323 2.323 0 01-.17-.085l-.126-.073a.416.416 0 00-.252-.068.293.293 0 00-.194.147l-.182.263a.423.423 0 00-.073.146.247.247 0 00.05.22.45.45 0 00.082.08c.07.051.143.097.22.137.1.052.204.097.31.134.124.043.249.078.376.103.14.029.283.043.426.044.214.003.427-.032.628-.106.171-.063.33-.16.463-.284.124-.116.22-.258.285-.415.065-.161.098-.333.096-.507a1.011 1.011 0 00-.137-.547" fill="#FFF"/></g></svg></svg>

