<?xml version="1.0" standalone="no"?>
<!DOCTYPE svg PUBLIC "-//W3C//DTD SVG 1.1//EN" "http://www.w3.org/Graphics/SVG/1.1/DTD/svg11.dtd" >
<svg xmlns="http://www.w3.org/2000/svg">
<metadata>Generated by IcoMoon</metadata>
<defs>
<font id="icomoon" horiz-adv-x="1024">
<font-face units-per-em="1024" ascent="960" descent="-64" />
<missing-glyph horiz-adv-x="1024" />
<glyph unicode="&#x20;" horiz-adv-x="512" d="" />
<glyph unicode="&#xe900;" glyph-name="filter" d="M738.379 633.146l-143.229-146.697c-4.982-5.103-7.763-11.89-7.763-18.948v-167.095l-150.775-56.964v224.059c0 7.058-2.78 13.845-7.763 18.948l-143.229 146.697h452.759zM824.181 641.625c17.037 17.45 4.4 46.375-20.261 46.375h-583.84c-24.661 0-37.299-28.926-20.261-46.375l180.745-185.122v-253.050c0-19.262 19.756-32.524 38.117-25.587l206.824 78.14c10.806 4.083 17.932 14.251 17.932 25.587v174.91l180.745 185.122z" />
<glyph unicode="&#xe901;" glyph-name="private" d="M265.647 204.962h-0.089v447.838c0 70.127 56.849 126.976 126.976 126.976h307.2c32.424 0 58.709-26.285 58.709-58.709v-443.733c0-13.573-11.003-24.576-24.576-24.576h-375.467c-24.13 0-43.691-19.561-43.691-43.691s19.561-43.691 43.691-43.691h375.467c13.573 0 24.576-11.003 24.576-24.576s-11.003-24.576-24.576-24.576h-375.467c-49.9 0-90.606 39.367-92.754 88.738zM709.291 301.909v419.157c0 5.278-4.279 9.557-9.557 9.557h-307.2c-42.981 0-77.824-34.843-77.824-77.824v-361.793c13.021 6.958 27.895 10.902 43.691 10.902h350.891zM495.667 474.933v-86.667h-39.5v239h72.5c27.445 0 48.722-6.389 63.833-19.167s22.667-30.778 22.667-54c0-23.222-7.889-42.222-23.667-57s-37.111-22.167-64-22.167h-31.833zM495.667 594.6v-87.333h25.667c17 0 29.944 3.944 38.833 11.833s13.333 19 13.333 33.333c0 28.111-16.333 42.167-49 42.167h-28.833zM733.758 226.133h-368.309c-9.426 0-17.067-7.641-17.067-17.067s7.641-17.067 17.067-17.067h368.309c9.426 0 17.067 7.641 17.067 17.067s-7.641 17.067-17.067 17.067z" />
<glyph unicode="&#xe902;" glyph-name="rules" d="M618.831 105.565c-13.396-9.624-16.454-28.286-6.83-41.682s28.286-16.454 41.682-6.83l184.43 132.495c16.588 11.917 16.588 36.596 0 48.512l-184.43 132.495c-13.396 9.624-32.058 6.566-41.682-6.83s-6.566-32.058 6.83-41.682l150.666-108.239-150.666-108.239zM341.169 105.565c13.396-9.624 16.454-28.286 6.83-41.682s-28.286-16.454-41.682-6.83l-184.43 132.495c-16.588 11.917-16.588 36.596 0 48.512l184.43 132.495c13.396 9.624 32.058 6.566 41.682-6.83s6.566-32.058-6.83-41.682l-150.666-108.239 150.666-108.239zM462.599 835.449c5.629 5.629 13.405 9.11 21.994 9.11h269.498c17.178 0 31.104-13.926 31.104-31.104v-180.027c0-17.178-13.926-31.104-31.104-31.104h-238.394v-389.959c0-17.178-13.926-31.104-31.104-31.104s-31.104 13.926-31.104 31.104v601.090c0 8.589 3.481 16.365 9.11 21.994zM515.697 782.352v-117.819h207.29v117.819h-207.29z" />
<glyph unicode="&#xe903;" glyph-name="globe" d="M755.397 647.462c-14.759 17.735-31.446 33.83-49.743 47.968-19.778-2.858-54.37-10.482-114.509-24.674-83.834-19.783-114.334-26.213-135.769-26.959-50.646-1.764-89.948 9.538-118.804 29.845-9.121 6.419-16.261 12.977-21.648 19.105-22.237-17.676-42.012-38.277-58.735-61.215 10.122-1.339 21.718-3.459 34.504-6.595 42.706-10.475 85.26-29.51 124.973-59.216 3.508-2.624 6.981-5.324 10.42-8.101 18.166-14.674 25.38-32.629 30.514-62.784 0.65-3.884 0.65-3.884 1.257-7.634 3.083-19.001 5.146-26.741 9.153-32.692 12.213-18.138 10.964-36.838-4.22-49.812-8.876-7.584-20.157-12.052-40.764-17.923 2.131 0.607-21.866-6.057-28.372-8.038-30.749-9.36-47.013-19.329-52.329-33.276-10.921-28.656-11.557-40.259-5.877-52.153 1.899-3.978 18.354-30.194 24.236-41.505 4.86-9.345 11.626-14.065 31.198-23.029 1.274-0.583 1.274-0.583 2.572-1.179 40.878-18.774 59.641-39.855 61.494-87.826 18.504-3.355 37.573-5.107 57.055-5.107 77.252 0 148.008 27.555 202.856 73.299-6.156 5.188-13.942 11.112-23.96 18.384-6.592 4.773-9.867 7.154-13.234 9.646-26.592 19.677-40.307 33.373-46.585 51.649-15.404 44.846-5.572 77.915 36.528 109.537 15.075 11.323 29.91 14.26 59.252 15.731 1.237 0.062 1.237 0.062 2.461 0.122 40.668 2.002 47.619 6.198 47.619 38.59 0-1.060 1.224-2.044-3.667-1.316-7.999 1.191-17.329 0.874-40.010-0.919l-1.346-0.106c-14.258-1.125-21.644-1.568-29.764-1.606-30.687-0.143-45.659 24.781-46.754 58.007-0.818 24.816 6.188 52.718 17.676 65.912 2.942 3.379 6.067 6.819 9.367 10.319 9.567 10.145 20.525 20.704 32.619 31.559 12.916 11.593 26.572 23.036 40.339 33.996zM778.131 616.476c-12.811-10.23-25.485-20.872-37.423-31.587-11.35-10.187-21.558-20.023-30.331-29.327-2.961-3.139-5.745-6.205-8.343-9.189-4.080-4.687-8.785-23.424-8.258-39.432 0.5-15.171 3.937-20.892 8.196-20.872 6.862 0.032 13.602 0.436 26.922 1.487l1.34 0.106c26.020 2.057 36.619 2.417 48.689 0.62 21.583-3.212 36.414-15.137 36.414-36.665 0-58.573-25.667-74.065-84.131-76.943-1.219-0.060-1.219-0.060-2.425-0.12-21.715-1.089-31.339-2.994-38.114-8.083-28.678-21.54-33.313-37.129-23.273-66.358 2.855-8.312 12.742-18.185 33.108-33.255 3.212-2.377 6.336-4.647 12.951-9.438 12.348-8.963 21.871-16.239 29.527-22.929 52.495 55.963 84.604 131.022 84.604 213.51 0 62.009-18.145 119.82-49.455 168.476zM233.214 594.971c-23.49-43.835-36.799-93.863-36.799-146.971 0-4.088 0.079-8.158 0.235-12.208 4.461-0.39 8.806-2.334 12.154-5.815 2.864-2.977 7.698-8.265 13.853-15.442 10.208-11.906 20.414-24.843 29.972-38.416 14.645-20.796 26.452-41.212 34.407-60.793 13.764-33.876 15.545-64.213 1.164-88.246 35.22-35.173 78.795-62.092 127.526-77.573-2.965 22.734-13.262 31.691-38.302 43.191-1.257 0.577-1.257 0.577-2.535 1.162-26.953 12.345-39.233 20.91-49.277 40.225-4.803 9.237-21.73 36.205-24.819 42.675-10.884 22.793-9.679 44.784 4.647 82.374 10.872 28.527 35.737 43.767 77.029 56.336 7.039 2.143 31.585 8.96 29.032 8.232 15.118 4.308 23.211 7.513 26.342 10.188-0.582-0.497-0.792-3.643-2.686-0.83-8.256 12.26-11.202 23.312-15.206 47.989-0.603 3.723-0.603 3.723-1.208 7.341-3.685 21.644-7.925 32.197-16.789 39.357-3.066 2.477-6.163 4.885-9.29 7.224-35.345 26.439-73.191 43.367-111.12 52.671-13.422 3.292-25.936 5.386-37.218 6.517-4.543 0.455-8.281 0.703-11.111 0.812zM204.819 375.863c10.102-42.568 28.949-81.789 54.555-115.688 1.298 10.937-1.333 24.496-7.915 40.697-6.717 16.533-17.13 34.538-30.228 53.137-5.28 7.497-10.799 14.816-16.413 21.854zM346.692 714.966c3.073-3.053 7.035-6.443 11.978-9.921 21.909-15.418 52.965-24.349 95.369-22.872 17.543 0.611 48.852 7.211 128.457 25.996 32.006 7.553 56.66 13.254 76.028 17.423-43.782 22.829-93.63 35.747-146.524 35.747-60.618 0-117.237-16.966-165.308-46.374zM512 78.673c-205.173 0-371.573 165.312-371.573 369.327s166.4 369.327 371.573 369.327c205.173 0 371.573-165.312 371.573-369.327s-166.4-369.327-371.573-369.327z" />
<glyph unicode="&#xe904;" glyph-name="pin" d="M410.39 742.93c-2.611 0-5.194-0.525-7.598-1.545-9.891-4.196-14.509-15.617-10.313-25.508 25.55-60.228 38.488-104.289 38.488-134.579s-12.937-74.351-38.487-134.577c-1.020-2.403-1.545-4.988-1.545-7.598 0-10.746 8.711-19.456 19.457-19.456h203.98c2.194 0 4.372 0.371 6.442 1.097 10.139 3.558 15.475 14.661 11.917 24.8l-44.236 126.073c-2.195 6.255-2.195 13.070 0 19.325l44.236 126.071c0.726 2.070 1.097 4.248 1.097 6.442 0 10.745-8.711 19.456-19.456 19.456h-203.981zM687.806 464.889c14.23-40.557-7.111-84.971-47.668-99.201-8.28-2.905-16.992-4.389-25.766-4.389h-203.979c-42.982-0.001-77.825 34.842-77.825 77.824 0 10.443 2.102 20.779 6.18 30.393 22.676 53.454 33.852 91.514 33.852 111.783s-11.176 58.329-33.853 111.786c-16.783 39.567 1.686 85.249 41.252 102.034 9.614 4.078 19.95 6.18 30.392 6.18h203.981c42.981 0 77.824-34.843 77.824-77.824 0-8.775-1.484-17.487-4.389-25.767l-40.845-116.408 40.846-116.41zM537.195 91.885v266.627c0 16.118-13.066 29.184-29.184 29.184s-29.184-13.066-29.184-29.184v-266.627c0-16.118 13.066-29.184 29.184-29.184s29.184 13.066 29.184 29.184z" />
<glyph unicode="&#xe905;" glyph-name="new-tab" d="M725.759 681.65h-136.59c-15.1 0-27.341 12.241-27.341 27.341s12.241 27.341 27.341 27.341h207.666c15.1 0 27.341-12.241 27.341-27.341v-210.707c0-15.1-12.241-27.341-27.341-27.341s-27.341 12.241-27.341 27.341v149.769l-170.328-170.328c-10.677-10.677-27.988-10.677-38.666 0s-10.677 27.988 0 38.666l165.259 165.259zM682.81 258.41c0-0.059 0.001-0.118 0.001-0.177v-30.299c0-37.703-30.564-68.267-68.267-68.267h-325.12c-49.485 0-89.6 40.115-89.6 89.6v285.867c0 37.703 30.564 68.267 68.267 68.267h35.027v16.98c0 37.587 30.525 68.353 68.143 68.353h96.729c14.138 0 25.6-11.462 25.6-25.6s-11.462-25.6-25.6-25.6h-96.729c-9.25 0-16.943-7.753-16.943-17.153v-293.617c0-9.553 7.621-17.153 17.459-17.153h330.917c9.58 0 17.459 7.828 17.459 16.975v44.619c0 14.138 11.462 25.6 25.6 25.6s25.6-11.462 25.6-25.6v-44.619c0-37.501-30.878-68.175-68.659-68.175h-19.884zM631.611 258.41h-259.834c-38.084 0-68.659 30.492-68.659 68.353v225.437h-35.027c-9.426 0-17.067-7.641-17.067-17.067v-285.867c0-21.208 17.192-38.4 38.4-38.4h325.12c9.426 0 17.067 7.641 17.067 17.067v30.299c0 0.059 0 0.118 0.001 0.177z" />
<glyph unicode="&#xe906;" glyph-name="unscale" d="M592.657 685.843c-0.083 14.138-11.612 25.532-25.75 25.449s-25.532-11.612-25.449-25.75l1.085-184.271c0.083-14.021 11.428-25.366 25.449-25.449l184.271-1.085c14.138-0.083 25.667 11.311 25.75 25.449s-11.311 25.667-25.449 25.75l-158.972 0.936-0.936 158.972zM596.399 496.194l178.899 178.899c9.997 9.997 9.997 26.206 0 36.204s-26.206 9.997-36.204 0l-178.899-178.899c-9.997-9.997-9.997-26.206 0-36.204s26.206-9.997 36.204 0zM274.157 367.343c-14.138 0.083-25.532 11.612-25.449 25.75s11.612 25.532 25.75 25.449l184.271-1.085c14.021-0.083 25.366-11.428 25.449-25.449l1.085-184.271c0.083-14.138-11.311-25.667-25.449-25.75s-25.667 11.311-25.75 25.449l-0.936 158.972-158.972 0.936zM463.806 363.601l-178.899-178.899c-9.997-9.997-26.206-9.997-36.204 0s-9.997 26.206 0 36.204l178.899 178.899c9.997 9.997 26.206 9.997 36.204 0s9.997-26.206 0-36.204z" />
<glyph unicode="&#xe907;" glyph-name="play-stroke" d="M287.132 652.264l-0.011-408.473c-0.002-66.273 32.078-84.916 89.629-51.921l358.020 205.255c57.47 32.948 57.485 68.884 0.006 101.835l-358.009 205.236c-57.647 33.047-89.634 14.532-89.635-51.932zM235.932 652.266c0.003 105.863 74.567 148.937 166.299 96.35l358.009-205.236c91.842-52.65 91.73-138.080-0.005-190.672l-358.020-205.255c-91.845-52.655-166.297-9.093-166.294 96.341l0.011 408.473z" />
<glyph unicode="&#xe908;" glyph-name="star-stroke" d="M500.086 268.487c7.458 3.921 16.368 3.921 23.825 0l154.718-81.34-29.548 172.281c-1.424 8.304 1.329 16.778 7.362 22.659l125.169 122.010-172.98 25.135c-8.338 1.212-15.546 6.449-19.275 14.004l-77.359 156.746-77.359-156.746c-3.729-7.556-10.937-12.793-19.275-14.004l-172.98-25.135 125.169-122.010c6.034-5.881 8.787-14.355 7.362-22.659l-29.548-172.281 154.718 81.34zM323.281 117.69c-18.781-9.874-40.731 6.074-37.144 26.987l36.042 210.141-152.676 148.822c-15.194 14.811-6.81 40.615 14.188 43.666l210.993 30.659 94.359 191.192c9.39 19.027 36.522 19.027 45.913 0l94.359-191.192 210.993-30.659c20.998-3.051 29.382-28.855 14.188-43.666l-152.676-148.822 36.042-210.141c3.587-20.913-18.363-36.861-37.144-26.987l-188.718 99.215-188.718-99.215z" />
<glyph unicode="&#xe909;" glyph-name="star" d="M502.418 231.429l-164.982-86.736c-10.429-5.483-23.327-1.473-28.81 8.956-2.183 4.153-2.937 8.909-2.143 13.534l31.509 183.71c1.187 6.92-1.107 13.982-6.135 18.883l-133.473 130.104c-8.437 8.224-8.61 21.73-0.386 30.167 3.275 3.36 7.566 5.546 12.209 6.221l184.456 26.803c6.948 1.010 12.955 5.374 16.063 11.67l82.491 167.145c5.214 10.565 18.006 14.903 28.572 9.689 4.207-2.076 7.613-5.482 9.689-9.689l82.491-167.145c3.107-6.296 9.114-10.661 16.063-11.67l184.456-26.803c11.66-1.694 19.738-12.52 18.044-24.179-0.675-4.643-2.861-8.934-6.221-12.209l-133.473-130.104c-5.028-4.901-7.322-11.962-6.135-18.883l31.509-183.71c1.992-11.613-5.807-22.641-17.42-24.633-4.624-0.793-9.381-0.040-13.534 2.144l-164.982 86.736c-6.215 3.267-13.64 3.267-19.855 0z" />
<glyph unicode="&#xe90a;" glyph-name="lightbox" d="M833.996 485.463l-313.253-160.795c-6.133-3.148-13.409-3.139-19.534 0.025l-311.153 160.744c-10.468 5.408-23.337 1.306-28.745-9.162s-1.306-23.337 9.162-28.745l311.153-160.744c18.374-9.492 40.202-9.521 58.601-0.076l313.253 160.795c10.482 5.38 14.617 18.239 9.237 28.721s-18.239 14.617-28.721 9.237zM518.748 461.921c-4.881-2.487-10.659-2.479-15.533 0.020l-267.626 137.213 172.161 91.466c12.486 6.633 17.23 22.133 10.596 34.618s-22.133 17.23-34.618 10.596l-215.473-114.477c-18.269-9.706-18.077-35.95 0.331-45.388l311.27-159.59c19.498-9.997 42.61-10.027 62.134-0.081l313.37 159.64c18.585 9.468 18.654 35.997 0.118 45.561l-221.867 114.477c-12.565 6.483-28.006 1.553-34.489-11.012s-1.553-28.006 11.012-34.489l177.494-91.582-268.878-136.975zM833.996 361.73l-313.253-160.795c-6.133-3.148-13.409-3.139-19.534 0.025l-311.153 160.744c-10.468 5.408-23.337 1.306-28.745-9.162s-1.306-23.337 9.162-28.745l311.153-160.744c18.374-9.492 40.202-9.521 58.601-0.076l313.253 160.795c10.482 5.38 14.617 18.239 9.237 28.721s-18.239 14.617-28.721 9.237z" />
<glyph unicode="&#xe90b;" glyph-name="walk-through" d="M474.985 209.766c143.878-25.37 281.081 70.701 306.45 214.579s-70.701 281.081-214.579 306.45c-143.878 25.37-281.081-70.701-306.45-214.579-13.513-76.636 7.182-153.685 55.333-212.911 8.919-10.97 7.256-27.094-3.714-36.013s-27.094-7.256-36.013 3.714c-57.427 70.635-82.148 162.677-66.028 254.101 30.28 171.726 194.038 286.39 365.763 256.11s286.39-194.038 256.11-365.763c-30.28-171.726-194.038-286.39-365.763-256.11-13.924 2.455-23.221 15.733-20.766 29.656s15.733 23.221 29.656 20.766zM587.167 99.006c10.113-9.881 10.301-26.089 0.42-36.201s-26.089-10.301-36.201-0.42l-105.935 103.507c-10.279 10.043-10.279 26.578 0 36.621l105.935 103.507c10.113 9.881 26.321 9.693 36.201-0.42s9.693-26.321-0.42-36.201l-87.195-85.197 87.195-85.197zM520.92 566.991c-53.412 0-96.711-43.299-96.711-96.711s43.299-96.711 96.711-96.711c53.412 0 96.711 43.299 96.711 96.711s-43.299 96.711-96.711 96.711z" />
<glyph unicode="&#xe90c;" glyph-name="arrow-left" d="M349.421 447.999l195.231 195.231c9.997 9.997 9.997 26.206 0 36.204s-26.206 9.997-36.204 0l-213.333-213.333c-9.997-9.997-9.997-26.206 0-36.204l213.333-213.333c9.997-9.997 26.206-9.997 36.204 0s9.997 26.206 0 36.204l-195.231 195.231zM681.283 473.599h-368.066c-14.138 0-25.6-11.462-25.6-25.6s11.462-25.6 25.6-25.6h368.066c14.138 0 25.6 11.462 25.6 25.6s-11.462 25.6-25.6 25.6z" />
<glyph unicode="&#xe90d;" glyph-name="arrow-right" d="M674.579 447.999l-195.231 195.231c-9.997 9.997-9.997 26.206 0 36.204s26.206 9.997 36.204 0l213.333-213.333c9.997-9.997 9.997-26.206 0-36.204l-213.333-213.333c-9.997-9.997-26.206-9.997-36.204 0s-9.997 26.206 0 36.204l195.231 195.231zM342.717 473.599h368.066c14.138 0 25.6-11.462 25.6-25.6s-11.462-25.6-25.6-25.6h-368.066c-14.138 0-25.6 11.462-25.6 25.6s11.462 25.6 25.6 25.6z" />
<glyph unicode="&#xe90e;" glyph-name="back" d="M630.725 704.293c9.146 10.782 7.82 26.937-2.962 36.082s-26.937 7.82-36.082-2.962l-231.449-272.853c-8.103-9.553-8.103-23.567 0-33.12l231.449-272.853c9.146-10.782 25.301-12.108 36.082-2.962s12.108 25.301 2.962 36.082l-217.402 256.293 217.402 256.293z" />
<glyph unicode="&#xe90f;" glyph-name="top" d="M768.293 329.275c10.782-9.146 26.937-7.82 36.082 2.962s7.82 26.937-2.962 36.082l-272.853 231.449c-9.553 8.103-23.567 8.103-33.12 0l-272.853-231.449c-10.782-9.146-12.108-25.301-2.962-36.082s25.3-12.108 36.082-2.962l256.293 217.402 256.293-217.402z" />
<glyph unicode="&#xe910;" glyph-name="bottom" d="M255.707 566.725c-10.782 9.146-26.937 7.82-36.082-2.962s-7.82-26.937 2.962-36.082l272.853-231.449c9.553-8.103 23.567-8.103 33.12 0l272.853 231.449c10.782 9.146 12.108 25.301 2.962 36.082s-25.3 12.108-36.082 2.962l-256.293-217.402-256.293 217.402z" />
<glyph unicode="&#xe911;" glyph-name="forward" d="M393.275 191.707c-9.146-10.782-7.82-26.937 2.962-36.082s26.937-7.82 36.082 2.962l231.449 272.853c8.103 9.553 8.103 23.567 0 33.12l-231.449 272.853c-9.146 10.782-25.3 12.108-36.082 2.962s-12.108-25.301-2.962-36.082l217.402-256.293-217.402-256.293z" />
<glyph unicode="&#xe912;" glyph-name="buffer-l" d="M771.645 525.489c56.463-28.488 56.533-28.523 76.135-38.425 30.639-16.574 30.639-61.554-0.607-78.445l-310.515-157.381c-15.571-7.581-33.748-7.581-49.687 0.183l-310.753 157.515c-30.639 16.574-30.639 61.554 0.607 78.445l75.364 38.198-75.97 38.508c-30.639 16.574-30.639 61.554 0.607 78.445l310.147 157.198c15.939 7.763 32.7 7.763 48.597 0.021l312.212-157.537c30.639-16.574 30.639-61.554-0.607-78.445l-75.529-38.281zM714.942 496.75l-178.284-90.361c-15.571-7.581-33.748-7.581-49.687 0.183l-178.16 90.306-96.444-48.874 297.384-150.732c1.424-0.693 3.073-0.693 4.128-0.183l297.724 150.891 4.313-2.176c-12.404 6.258-20.221 10.203-67.946 34.282l-33.028 16.664zM212.366 603.156l297.384-150.733c1.424-0.693 3.073-0.693 4.128-0.183l297.724 150.891-298.772 150.747c-1.37 0.667-1.637 0.692-2.923 0.076l-297.541-150.799zM513.879 141.937c-1.056-0.51-2.705-0.51-4.128 0.183l-297.384 150.732 106.343 53.891c12.611 6.392 17.653 21.797 11.261 34.408s-21.797 17.653-34.408 11.261l-118.738-60.182c-31.245-16.891-31.245-61.872-0.607-78.445l310.753-157.515c15.939-7.763 34.116-7.763 49.687-0.183l310.515 157.381c31.245 16.891 31.245 61.872 0.607 78.445l-120.382 60.75c-12.623 6.369-28.019 1.299-34.387-11.324s-1.299-28.019 11.324-34.387l107.268-54.122-297.724-150.891z" />
<glyph unicode="&#xe913;" glyph-name="buffer" d="M741.764 511.892l93.836-47.345c12.746-6.895 12.746-26.2 0-33.094l-310.147-157.198c-8.497-4.137-18.411-4.137-26.908 0l-310.147 157.198c-12.746 6.895-12.746 26.2 0 33.094l93.623 47.453 216.524-109.745c8.497-4.137 18.411-4.137 26.908 0l216.31 109.637zM741.764 341.226l93.836-47.345c12.746-6.895 12.746-26.2 0-33.094l-310.147-157.198c-8.497-4.137-18.411-4.137-26.908 0l-310.147 157.198c-12.746 6.895-12.746 26.2 0 33.094l93.623 47.453 216.524-109.745c8.497-4.137 18.411-4.137 26.908 0l216.31 109.637zM498.546 792.412l-310.147-157.198c-12.746-6.895-12.746-26.2 0-33.094l310.147-157.198c8.497-4.137 18.411-4.137 26.908 0l310.147 157.198c12.746 6.895 12.746 26.2 0 33.094l-311.563 157.198c-8.497 4.137-16.994 4.137-25.492 0z" />
<glyph unicode="&#xe914;" glyph-name="context" d="M484.267 625.649v-436.339c0-14.138 11.462-25.6 25.6-25.6s25.6 11.462 25.6 25.6v435.458c56.098 10.562 98.438 58.268 98.438 115.522 0 65.005-54.579 117.701-121.905 117.701s-121.905-52.697-121.905-117.701c0-55.793 40.207-102.52 94.171-114.642zM596.746 225.929c43.39-16.166 68.855-42.882 68.855-69.705 0-44.057-67.535-84.083-153.6-84.083s-153.6 40.026-153.6 84.083c0 27.92 27.62 55.667 73.902 71.508 8.918 3.052 13.673 12.756 10.621 21.674s-12.756 13.673-21.674 10.621c-58.609-20.060-96.983-58.609-96.983-103.802 0-67.67 85.285-118.216 187.733-118.216s187.733 50.546 187.733 118.216c0 43.592-35.721 81.069-91.072 101.69-8.833 3.291-18.66-1.202-21.951-10.034s1.202-18.66 10.034-21.951z" />
<glyph unicode="&#xe915;" glyph-name="scale" d="M449.504 670.402c14.138 0.083 25.532 11.612 25.449 25.75s-11.612 25.532-25.75 25.449l-184.271-1.085c-14.021-0.083-25.366-11.428-25.449-25.449l-1.085-184.271c-0.083-14.138 11.311-25.667 25.449-25.75s25.667 11.311 25.75 25.449l0.936 158.972 158.972 0.936zM259.855 666.66l178.899-178.899c9.997-9.997 26.206-9.997 36.204 0s9.997 26.206 0 36.204l-178.899 178.899c-9.997 9.997-26.206 9.997-36.204 0s-9.997-26.206 0-36.204zM734.402 385.505c0.083 14.138 11.612 25.532 25.75 25.449s25.532-11.612 25.449-25.75l-1.085-184.271c-0.083-14.021-11.428-25.366-25.449-25.449l-184.271-1.085c-14.138-0.083-25.667 11.311-25.75 25.449s11.311 25.667 25.449 25.75l158.972 0.936 0.936 158.972zM730.66 195.855l-178.899 178.899c-9.997 9.997-9.997 26.206 0 36.204s26.206 9.997 36.204 0l178.899-178.899c9.997-9.997 9.997-26.206 0-36.204s-26.206-9.997-36.204 0z" />
<glyph unicode="&#xe916;" glyph-name="chat" d="M434.545 249.743l68.522 76.009c4.781 5.304 11.587 8.332 18.728 8.332h123.898c47.967 0 86.852 38.885 86.852 86.852v212.193c0 47.967-38.885 86.852-86.852 86.852h-267.387c-47.967 0-86.852-38.885-86.852-86.852v-212.193c0-47.967 38.885-86.852 86.852-86.852h24.809c12.927 0 23.76-9.776 25.083-22.635l6.347-61.706zM380.361 283.654h-2.055c-75.818 0-137.282 61.463-137.282 137.282v212.193c0 75.818 61.463 137.282 137.282 137.282h267.387c75.819 0 137.282-61.463 137.282-137.282v-212.193c0-75.818-61.463-137.282-137.282-137.282h-112.68l-99.015-109.834c-14.632-16.231-41.575-7.434-43.811 14.304l-9.826 95.53zM623.566 616.737h-246.426c-11.28 0-20.424-9.144-20.424-20.424s9.144-20.424 20.424-20.424h246.426c11.28 0 20.424 9.144 20.424 20.424s-9.144 20.424-20.424 20.424zM523.818 510.864h-140.553c-11.28 0-20.424-9.144-20.424-20.424s9.144-20.424 20.424-20.424h140.553c11.28 0 20.424 9.144 20.424 20.424s-9.144 20.424-20.424 20.424z" />
<glyph unicode="&#xe917;" glyph-name="connect" d="M438.956 605.363h180.333c51.698 0 93.673-41.898 93.673-93.363 0-51.486-42.025-93.363-93.673-93.363h-180.333c-14.138 0-25.6-11.462-25.6-25.6s11.462-25.6 25.6-25.6h180.333c79.884 0 144.873 64.759 144.873 144.563 0 79.763-64.919 144.563-144.873 144.563h-180.333c-14.138 0-25.6-11.462-25.6-25.6s11.462-25.6 25.6-25.6zM585.045 528.563h-180.333c-79.954 0-144.873-64.8-144.873-144.563 0-79.804 64.989-144.563 144.873-144.563h180.333c14.138 0 25.6 11.462 25.6 25.6s-11.462 25.6-25.6 25.6h-180.333c-51.648 0-93.673 41.877-93.673 93.363 0 51.465 41.975 93.363 93.673 93.363h180.333c14.138 0 25.6 11.462 25.6 25.6s-11.462 25.6-25.6 25.6z" />
<glyph unicode="&#xe918;" glyph-name="break" d="M520.582 564.311l92.268 92.268c29.923 29.923 77.989 29.986 107.978-0.003 29.743-29.743 29.698-78.282 0.003-107.978l-92.268-92.268c-9.997-9.997-9.997-26.206 0-36.204s26.206-9.997 36.204 0l92.268 92.268c49.675 49.675 49.75 130.633-0.003 180.386-50.005 50.005-130.489 49.9-180.386 0.003l-92.268-92.268c-9.997-9.997-9.997-26.206 0-36.204s26.206-9.997 36.204 0zM359.485 475.622l-92.268-92.268c-49.897-49.897-50.002-130.38 0.003-180.386 49.753-49.753 130.71-49.678 180.386-0.003l92.268 92.268c9.997 9.997 9.997 26.206 0 36.204s-26.206 9.997-36.204 0l-92.268-92.268c-29.695-29.695-78.235-29.74-107.978 0.003-29.989 29.989-29.926 78.055-0.003 107.978l92.268 92.268c9.997 9.997 9.997 26.206 0 36.204s-26.206 9.997-36.204 0z" />
<glyph unicode="&#xe919;" glyph-name="code" d="M630.78 336.94c-12.093-7.326-15.957-23.067-8.631-35.16s23.067-15.957 35.16-8.631l219.467 132.955c16.447 9.964 16.447 33.827 0 43.791l-219.467 132.955c-12.093 7.326-27.834 3.462-35.16-8.631s-3.462-27.834 8.631-35.16l183.324-111.060-183.324-111.060zM393.22 559.059c12.093 7.326 15.957 23.067 8.631 35.16s-23.067 15.957-35.16 8.631l-219.467-132.955c-16.447-9.964-16.447-33.827 0-43.791l219.467-132.955c12.093-7.326 27.834-3.462 35.16 8.631s3.462 27.834-8.631 35.16l-183.324 111.060 183.324 111.060z" />
<glyph unicode="&#xe91a;" glyph-name="codebox" d="M873.698 645.885c0.6-2.182 0.92-4.48 0.92-6.853v-321.968c0-18.928-10.361-36.337-26.998-45.363l-298.225-161.8c-23.026-12.493-50.808-12.493-73.834 0l-298.225 161.8c-16.637 9.026-26.998 26.435-26.998 45.363v321.968c0 1.681 0.161 3.325 0.468 4.916-2.062 10.768 2.648 22.681 14.129 28.216l249.432 120.239c12.838 6.189 28.262 0.798 34.45-12.040s0.798-28.262-12.040-34.45l-201.211-96.994 199.432-96.136c12.838-6.189 18.228-21.612 12.040-34.45s-21.612-18.228-34.45-12.040l-210.64 101.539v-290.768l298.225-161.8c7.675-4.164 16.936-4.164 24.611 0l298.225 161.8v291.932l-213.054-102.703c-12.838-6.189-28.262-0.798-34.45 12.040s-0.798 28.262 12.040 34.45l201.211 96.994-199.432 96.136c-12.838 6.189-18.228 21.612-12.040 34.45s21.612 18.228 34.45 12.040l247.653-119.381c11.099-5.35 15.869-16.662 14.312-27.137z" />
<glyph unicode="&#xe91b;" glyph-name="codota" d="M382.215 556.032v184.404l-179.965-90.265 179.965-94.14zM120.504 650.097c-0.018 0.858 0.007 1.713 0.075 2.564 0.721 9.575 6.559 17.222 14.333 21.016l238.2 119.473c29.72 14.907 60.302-3.303 60.302-36.852v-227.049l2.337-1.223c20.996-10.983 36.31-36.343 36.31-59.979v-328.479c0-32.959-30.535-51.796-60.042-36.361l-277.782 145.308c-8.443 4.416-13.734 13.156-13.734 22.684v378.897zM420.862 468.048c0 4.604-4.751 12.472-8.842 14.611l-240.316 125.709v-321.669l249.158-130.334v311.682zM641.785 339.967v-184.404l179.965 90.265-179.965 94.14zM903.496 245.902c0.018-0.858-0.007-1.713-0.075-2.564-0.722-9.575-6.559-17.222-14.333-21.016l-238.2-119.473c-29.72-14.907-60.302 3.303-60.302 36.852v227.049l-2.337 1.223c-20.996 10.983-36.31 36.343-36.31 59.979v328.479c0 32.959 30.535 51.796 60.042 36.361l277.782-145.308c8.443-4.416 13.734-13.156 13.734-22.684v-378.897zM603.138 427.952c0-4.604 4.751-12.472 8.842-14.611l240.316-125.709v321.669l-249.158 130.334v-311.682z" />
<glyph unicode="&#xe91c;" glyph-name="cogwheel" d="M418.346 698.43c10.064 43.61 48.897 74.502 93.654 74.502s83.589-30.892 93.654-74.502l3.223-13.964c0.614-0.25 1.226-0.503 1.837-0.758l12.159 7.599c37.95 23.719 87.25 18.104 118.895-13.541s37.26-80.944 13.541-118.895l-7.599-12.158c0.255-0.611 0.507-1.223 0.758-1.837l13.964-3.223c43.61-10.064 74.502-48.897 74.502-93.654s-30.892-83.589-74.503-93.653l-13.964-3.222c-0.251-0.614-0.503-1.226-0.758-1.837l7.599-12.159c23.719-37.95 18.105-87.25-13.54-118.895s-80.945-37.26-118.895-13.54l-12.159 7.599c-0.611-0.255-1.223-0.507-1.837-0.758l-3.223-13.964c-10.064-43.61-48.897-74.502-93.654-74.502s-83.589 30.892-93.654 74.502l-3.223 13.964c-0.614 0.25-1.226 0.503-1.837 0.758l-12.159-7.599c-37.95-23.719-87.25-18.105-118.895 13.54s-37.26 80.945-13.54 118.895l7.599 12.158c-0.255 0.611-0.508 1.223-0.758 1.838l-13.964 3.222c-43.61 10.064-74.503 48.897-74.503 93.653s30.892 83.589 74.502 93.654l13.964 3.223c0.25 0.614 0.503 1.226 0.758 1.837l-7.599 12.159c-23.719 37.95-18.105 87.25 13.541 118.895s80.944 37.26 118.895 13.541l12.159-7.599c0.611 0.255 1.223 0.507 1.837 0.758l3.223 13.964zM463.143 658.931c-2.038-8.833-8.487-15.99-17.061-18.935-8.094-2.78-15.876-5.991-23.241-9.599-8.149-3.992-17.78-3.495-25.475 1.315l-24.079 15.049c-17.207 10.754-39.56 8.209-53.908-6.14s-16.894-36.701-6.139-53.908l15.050-24.079c4.81-7.695 5.306-17.328 1.314-25.477-3.605-7.359-6.816-15.139-9.6-23.242-2.945-8.572-10.102-15.020-18.934-17.058l-27.686-6.389c-19.775-4.564-33.783-22.173-33.783-42.468s14.008-37.904 33.783-42.467l27.686-6.389c8.833-2.038 15.99-8.487 18.935-17.060 2.782-8.099 5.993-15.88 9.599-23.241 3.993-8.149 3.496-17.782-1.314-25.477l-15.050-24.079c-10.754-17.207-8.209-39.56 6.139-53.908s36.701-16.894 53.908-6.139l24.079 15.050c7.695 4.809 17.327 5.306 25.475 1.314 7.366-3.608 15.147-6.819 23.241-9.599 8.573-2.945 15.022-10.102 17.061-18.935l6.389-27.687c4.564-19.775 22.173-33.783 42.468-33.783s37.904 14.008 42.468 33.783l6.389 27.687c2.038 8.833 8.487 15.99 17.061 18.935 8.093 2.78 15.875 5.991 23.241 9.599 8.149 3.992 17.781 3.495 25.475-1.314l24.079-15.050c17.207-10.754 39.56-8.209 53.908 6.139s16.894 36.701 6.139 53.908l-15.050 24.079c-4.81 7.695-5.306 17.328-1.314 25.477 3.605 7.358 6.816 15.139 9.6 23.243 2.945 8.572 10.102 15.020 18.934 17.058l27.686 6.389c19.775 4.563 33.783 22.172 33.783 42.467s-14.008 37.904-33.783 42.468l-27.686 6.389c-8.832 2.038-15.99 8.487-18.935 17.060-2.782 8.098-5.992 15.878-9.599 23.24-3.993 8.149-3.496 17.782 1.314 25.477l15.050 24.079c10.754 17.207 8.209 39.56-6.139 53.908s-36.701 16.894-53.908 6.14l-24.079-15.049c-7.695-4.809-17.326-5.306-25.475-1.315-7.366 3.608-15.148 6.819-23.241 9.599-8.573 2.945-15.022 10.102-17.061 18.935l-6.389 27.687c-4.564 19.775-22.173 33.783-42.468 33.783s-37.904-14.008-42.468-33.783l-6.389-27.687zM512 495.542c-26.257 0-47.542-21.285-47.542-47.542s21.285-47.542 47.542-47.542c26.256 0 47.542 21.285 47.542 47.542s-21.285 47.542-47.542 47.542zM512 548.073c55.269 0 100.073-44.804 100.073-100.073s-44.804-100.073-100.073-100.073c-55.269 0-100.073 44.804-100.073 100.073s44.804 100.073 100.073 100.073z" />
<glyph unicode="&#xe91d;" glyph-name="copy" d="M389.477 742.4c-12.725 0-23.040-10.315-23.040-23.040v-389.12c0-12.725 10.315-23.040 23.040-23.040h389.12c12.725 0 23.040 10.315 23.040 23.040v389.12c0 12.725-10.315 23.040-23.040 23.040h-389.12zM389.477 793.6h389.12c41.002 0 74.24-33.238 74.24-74.24v-389.12c0-41.002-33.238-74.24-74.24-74.24h-389.12c-41.002 0-74.24 33.238-74.24 74.24v389.12c0 41.002 33.238 74.24 74.24 74.24zM337.866 620.8h-60.463c-12.725 0-23.040-10.315-23.040-23.040v-389.12c0-12.725 10.315-23.040 23.040-23.040h389.12c12.725 0 23.040 10.315 23.040 23.040v81.358h51.2v-81.358c0-41.002-33.238-74.24-74.24-74.24h-389.12c-41.002 0-74.24 33.238-74.24 74.24v389.12c0 41.002 33.238 74.24 74.24 74.24h60.463v-51.2z" />
<glyph unicode="&#xe91e;" glyph-name="delete-codebox" d="M224.858 623.049c0 13.573-11.003 24.576-24.576 24.576s-24.576-11.003-24.576-24.576v-378.743c0-10.023 6.086-19.041 15.381-22.791l311.906-125.834c12.587-5.078 26.908 1.009 31.986 13.596s-1.009 26.908-13.596 31.986l-296.525 119.629v362.157zM394.664 694.72c12.181 5.988 17.201 20.716 11.213 32.897s-20.716 17.201-32.897 11.213l-183.894-90.398c-18.771-9.227-18.169-36.193 0.996-44.573l184.667-80.748c12.436-5.438 26.926 0.235 32.363 12.671s-0.235 26.926-12.671 32.364l-136.152 59.534 136.375 67.039zM502.408 141.018c-12.452-5.402-18.167-19.875-12.766-32.326s19.875-18.167 32.326-12.766l311.906 135.302c8.983 3.897 14.796 12.754 14.796 22.546v369.274c0 13.573-11.003 24.576-24.576 24.576s-24.576-11.003-24.576-24.576v-353.146l-297.111-128.884zM487.612 443.62v-325.147c0-13.573 11.003-24.576 24.576-24.576s24.576 11.003 24.576 24.576v325.147c0 13.573-11.003 24.576-24.576 24.576s-24.576-11.003-24.576-24.576zM487.612 844.898v-218.612c0-13.573 11.003-24.576 24.576-24.576s24.576 11.003 24.576 24.576v218.612c0 13.573-11.003 24.576-24.576 24.576s-24.576-11.003-24.576-24.576zM451.205 672.829c-10.369 8.758-25.875 7.452-34.633-2.918s-7.452-25.875 2.918-34.633l76.573-64.674c9.157-7.734 22.558-7.734 31.715 0l76.573 64.674c10.369 8.758 11.676 24.264 2.918 34.633s-24.264 11.676-34.633 2.918l-60.715-51.28-60.715 51.28zM765.711 627.681l-136.152-59.534c-12.436-5.438-18.109-19.927-12.671-32.364s19.927-18.109 32.363-12.671l184.667 80.748c19.165 8.38 19.767 35.345 0.996 44.573l-183.894 90.398c-12.181 5.988-26.909 0.967-32.897-11.213s-0.967-26.909 11.213-32.897l136.375-67.039z" />
<glyph unicode="&#xe91f;" glyph-name="save-codebox" d="M212.893 599.599c0 14.138-11.462 25.6-25.6 25.6s-25.6-11.462-25.6-25.6v-394.524c0-10.44 6.34-19.835 16.022-23.741l324.902-131.077c13.112-5.29 28.029 1.051 33.319 14.163s-1.051 28.029-14.163 33.319l-308.88 124.613v377.247zM389.774 674.257c12.688 6.237 17.918 21.579 11.681 34.268s-21.579 17.918-34.268 11.681l-191.556-94.164c-19.553-9.612-18.926-37.701 1.037-46.43l192.361-84.113c12.954-5.664 28.048 0.245 33.712 13.199s-0.245 28.048-13.199 33.712l-141.825 62.015 142.058 69.832zM502.007 97.484c-12.971-5.627-18.924-20.703-13.298-33.673s20.703-18.924 33.673-13.298l324.902 140.94c9.357 4.059 15.412 13.286 15.412 23.485v384.66c0 14.138-11.462 25.6-25.6 25.6s-25.6-11.462-25.6-25.6v-367.861l-309.49-134.254zM486.595 412.694v-338.695c0-14.138 11.462-25.6 25.6-25.6s25.6 11.462 25.6 25.6v338.695c0 14.138-11.462 25.6-25.6 25.6s-25.6-11.462-25.6-25.6zM486.595 621.333v227.72c0 14.138 11.462 25.6 25.6 25.6s25.6-11.462 25.6-25.6v-227.72c0-14.138-11.462-25.6-25.6-25.6s-25.6 11.462-25.6 25.6zM448.671 800.572c-10.801-9.123-26.953-7.762-36.076 3.039s-7.762 26.953 3.039 36.076l79.764 67.369c9.539 8.057 23.498 8.057 33.037 0l79.764-67.369c10.801-9.123 12.162-25.275 3.039-36.076s-25.275-12.162-36.076-3.039l-63.245 53.417-63.245-53.417zM634.456 542.41c-12.954-5.664-18.864-20.758-13.199-33.712s20.758-18.864 33.712-13.199l192.361 84.113c19.963 8.729 20.591 36.818 1.037 46.43l-191.556 94.164c-12.688 6.237-28.031 1.008-34.268-11.681s-1.008-28.031 11.681-34.268l142.058-69.832-141.825-62.015z" />
<glyph unicode="&#xe920;" glyph-name="fistbump" d="M703.498 322.142c-0.93-0.14-1.951-0.286-3.058-0.433-22.862-3.044-47.873-2.296-70.63 4.698-9.86 3.031-18.882 7.153-26.955 12.444-11.825 7.75-27.694 4.446-35.444-7.379s-4.446-27.694 7.379-35.444c12.266-8.039 25.67-14.164 39.978-18.561 30.867-9.487 62.879-10.444 92.428-6.51 6.051 0.806 10.61 1.643 13.389 2.273 3.413 0.773 6.631 2.238 9.455 4.304 11.617 8.496 26.855 26.309 41.226 55.684 22.62 46.239 35.947 108.468 35.947 188.832 0 170.941-99.226 276.834-204.924 238.695-60.961 22.050-105.964 16.535-160.24-8.020 5.109 2.311-9.693-4.504-19.23-8.767-44.029 6.821-85.684 0.107-123.145-15.32-11.23-4.625-20.444-9.319-27.428-13.438-20.642 1.116-43.596-1.036-66.092-8.896-11.104-3.88-21.473-9.027-30.912-15.595-2.599-1.805-2.599-1.805-5.276-3.674-56.544-39.625-70.189-91.104-52.501-255.426 9.354-86.901 44.639-140.801 98.165-164.798 30.648-13.741 62.437-15.87 91.329-11.433 5.022 0.771 8.841 1.587 11.264 2.23 13.665 3.628 21.801 17.648 18.173 31.313s-17.648 21.801-31.313 18.173c-0.722-0.192-2.764-0.628-5.896-1.109-19.981-3.069-42.265-1.576-62.611 7.546-35.985 16.133-60.706 53.896-68.205 123.558-15.903 147.743-6.977 181.418 30.979 208.017 2.492 1.739 2.492 1.739 5.138 3.578 5.453 3.795 11.669 6.881 18.554 9.286 16.302 5.695 34.222 7.071 49.488 5.907 1.533-0.117 2.485-0.22 2.769-0.258 6.432-0.874 12.955 0.728 18.251 4.482 4.153 2.944 12.991 7.995 25.622 13.196 31.131 12.82 65.744 17.931 102.041 10.988 4.87-0.932 9.906-0.429 14.496 1.447 6.531 2.67 35.424 15.955 27.447 12.346 45.475 20.573 78.407 23.914 129.931 3.399 6.427-2.559 13.617-2.408 19.931 0.419 69.201 30.982 142.998-43.82 142.998-187.845 0-72.833-11.681-127.377-30.738-166.333-8.449-17.271-16.351-28.028-21.777-33.575zM242.844 504.506c0.579-7.129 1.702-19.477 3.349-35.318 2.746-26.409 5.974-52.83 9.675-77.571 9.502-63.54 19.457-103.385 35.135-120.78 33.255-36.895 143.71-30.134 173.198-1.103 10.075 9.919 10.202 26.128 0.283 36.203s-26.128 10.202-36.203 0.283c-10.060-9.904-87.066-14.617-99.247-1.103-5.65 6.268-14.989 43.652-22.53 94.073-3.574 23.897-6.713 49.589-9.386 75.293-1.604 15.427-2.693 27.398-3.242 34.166-1.144 14.092-13.495 24.589-27.587 23.445s-24.589-13.495-23.445-27.587zM385.453 542.023c0.342-8.054 1.058-22.034 2.184-39.978 1.878-29.913 4.243-59.837 7.138-87.841 7.715-74.631 16.535-119.477 32.875-137.606 33.213-36.849 139.866-31.701 169.234-2.789 14.921 14.69 16.572 54.978 15.12 159.089-0.363 25.998-1.038 53.712-1.935 81.963-0.486 15.323-1.008 29.838-1.529 43.090-0.313 7.961-0.557 13.741-0.698 16.881-0.631 14.124-12.593 25.063-26.717 24.432s-25.063-12.593-24.432-26.717c0.136-3.053 0.377-8.742 0.686-16.608 0.516-13.128 1.033-27.515 1.515-42.702 0.888-27.968 1.556-55.388 1.914-81.053 0.513-36.798 0.357-67.825-0.596-91.079-0.522-12.735-1.276-22.869-2.234-29.967-0.327-2.422-0.968-4.736 2.985-0.843-9.768-9.617-82.908-13.147-95.283 0.583-5.24 5.813-13.911 49.905-19.978 108.592-2.816 27.24-5.129 56.507-6.967 85.784-1.103 17.571-1.802 31.213-2.13 38.943-0.6 14.126-12.538 25.090-26.664 24.49s-25.090-12.538-24.49-26.664zM482.244 282.767c-1.24-3.794-2.929-9.953-4.578-17.901-3.969-19.123-5.598-38.774-3.444-57.788 4.424-39.041 24.512-69.191 62.982-81.647 87.454-28.314 293.085 42.447 344.636 125.503 42.382 68.284 14.35 138.262-82.292 237.829-9.847 10.145-26.055 10.387-36.2 0.54s-10.387-26.055-0.54-36.2c82.060-84.543 101.561-133.227 75.529-175.168-38.91-62.69-219.923-124.98-285.363-103.793-17.242 5.582-25.537 18.032-27.879 38.701-1.458 12.868-0.256 27.373 2.701 41.617 1.235 5.952 2.432 10.314 3.116 12.408 4.391 13.44-2.945 27.894-16.385 32.284s-27.894-2.945-32.284-16.385z" />
<glyph unicode="&#xe921;" glyph-name="new-window" d="M815.103 607.503v50.064c0 9.041-7.384 16.436-16.42 16.436h-573.369c-9.146 0-16.42-7.294-16.42-16.436v-50.064h606.208zM815.103 558.351h-606.208v-319.918c0-9.041 7.384-16.436 16.42-16.436h573.369c9.146 0 16.42 7.294 16.42 16.436v319.918zM159.743 657.567c0 36.257 29.249 65.588 65.572 65.588h573.369c36.199 0 65.572-29.419 65.572-65.588v-419.134c0-36.257-29.249-65.588-65.572-65.588h-573.369c-36.199 0-65.572 29.419-65.572 65.588v419.134z" />
<glyph unicode="&#xe922;" glyph-name="dotdotdot" d="M238.933 379.733c-37.703 0-68.267 30.564-68.267 68.267s30.564 68.267 68.267 68.267c37.703 0 68.267-30.564 68.267-68.267s-30.564-68.267-68.267-68.267zM512 379.733c-37.703 0-68.267 30.564-68.267 68.267s30.564 68.267 68.267 68.267c37.703 0 68.267-30.564 68.267-68.267s-30.564-68.267-68.267-68.267zM785.067 379.733c-37.703 0-68.267 30.564-68.267 68.267s30.564 68.267 68.267 68.267c37.703 0 68.267-30.564 68.267-68.267s-30.564-68.267-68.267-68.267z" />
<glyph unicode="&#xe923;" glyph-name="more" d="M443.733 721.066c0 37.703 30.564 68.267 68.267 68.267s68.267-30.564 68.267-68.267c0-37.703-30.564-68.267-68.267-68.267s-68.267 30.564-68.267 68.267zM443.733 447.999c0 37.703 30.564 68.267 68.267 68.267s68.267-30.564 68.267-68.267c0-37.703-30.564-68.267-68.267-68.267s-68.267 30.564-68.267 68.267zM443.733 174.933c0 37.703 30.564 68.267 68.267 68.267s68.267-30.564 68.267-68.267c0-37.703-30.564-68.267-68.267-68.267s-68.267 30.564-68.267 68.267z" />
<glyph unicode="&#xe924;" glyph-name="vi" d="M303.797 455.094c-9.862 10.131-26.069 10.35-36.201 0.488s-10.35-26.069-0.488-36.201l141.285-145.149c9.956-10.228 26.353-10.339 36.446-0.246l311.918 311.918c9.997 9.997 9.997 26.206 0 36.204s-26.206 9.997-36.204 0l-293.57-293.57-123.186 126.555z" />
<glyph unicode="&#xe925;" glyph-name="loader" d="M512 217.6c-127.246 0-230.4 103.154-230.4 230.4s103.154 230.4 230.4 230.4c127.246 0 230.4-103.154 230.4-230.4 0-14.138 11.462-25.6 25.6-25.6s25.6 11.462 25.6 25.6c0 155.523-126.077 281.6-281.6 281.6s-281.6-126.077-281.6-281.6c0-155.523 126.077-281.6 281.6-281.6 14.138 0 25.6 11.462 25.6 25.6s-11.462 25.6-25.6 25.6z" />
<glyph unicode="&#xe926;" glyph-name="edit" d="M691.676 608.357c18.884 26.97 12.425 64.437-14.358 83.191l-14.398 10.082c-26.934 18.86-64.067 12.199-83.085-14.96l-248.44-354.809-18.858-145.951 130.699 67.639 248.44 354.809zM537.893 716.036c35.198 50.268 104.24 62.651 154.393 27.534l14.398-10.082c50.018-35.023 61.985-104.437 26.932-154.499l-252.051-359.967c-2.372-3.388-5.531-6.151-9.204-8.052l-141.599-73.28c-39.375-20.377-75.431 5.026-69.768 48.852l20.43 158.123c0.53 4.102 2.046 8.015 4.419 11.403l252.051 359.967zM593.909 624.944l-161.161-230.162c-6.758-9.651-4.412-22.954 5.239-29.712s22.954-4.412 29.712 5.239l161.161 230.162c6.758 9.651 4.412 22.954-5.239 29.712s-22.954 4.412-29.712-5.239z" />
<glyph unicode="&#xe927;" glyph-name="share" d="M643.295 552.794c13.392 0.963 23.765 12.108 23.765 25.534v90.53l221.626-180.622-221.626-185.256v84.575c0 13.283-10.16 24.36-23.394 25.505-179.41 15.518-336.443-36.749-469.673-156 61.401 179.575 216.232 277.544 469.302 295.734zM101.86 177.378c-4.093-25.35 27.521-40.27 44.488-20.996 130.312 148.027 286.143 216.744 469.512 207.287v-115.452c0-21.723 25.351-33.573 42.018-19.642l287.442 240.27c12.342 10.316 12.223 29.324-0.246 39.486l-287.442 234.261c-16.723 13.629-41.773 1.73-41.773-19.844v-120.846c-299.356-27.98-472.96-170.351-514-424.523z" />
<glyph unicode="&#xe928;" glyph-name="expand" d="M623.124 595.007c10.056-9.938 26.265-9.843 36.203 0.213s9.843 26.265-0.213 36.203l-140.429 138.785c-9.972 9.856-26.018 9.856-35.99 0l-140.429-138.785c-10.056-9.938-10.152-26.147-0.213-36.203s26.147-10.152 36.203-0.213l122.434 121 122.434-121zM476.376 710.117v-157.138c0-14.138 11.462-25.6 25.6-25.6s25.6 11.462 25.6 25.6v157.138c0 14.138-11.462 25.6-25.6 25.6s-25.6-11.462-25.6-25.6zM623.124 300.993c10.056 9.938 26.265 9.843 36.203-0.213s9.843-26.265-0.213-36.203l-140.429-138.785c-9.972-9.856-26.018-9.856-35.99 0l-140.429 138.785c-10.056 9.938-10.152 26.147-0.213 36.203s26.147 10.152 36.203 0.213l122.434-121 122.434 121zM476.376 185.882v157.138c0 14.138 11.462 25.6 25.6 25.6s25.6-11.462 25.6-25.6v-157.138c0-14.138-11.462-25.6-25.6-25.6s-25.6 11.462-25.6 25.6zM213.975 424.686h596.050c14.138 0 25.6 11.462 25.6 25.6s-11.462 25.6-25.6 25.6h-596.050c-14.138 0-25.6-11.462-25.6-25.6s11.462-25.6 25.6-25.6z" />
<glyph unicode="&#xe929;" glyph-name="contract" d="M623.124 723.088c10.056 9.938 26.265 9.843 36.203-0.213s9.843-26.265-0.213-36.203l-140.429-138.785c-9.972-9.856-26.018-9.856-35.99 0l-140.429 138.785c-10.056 9.938-10.152 26.147-0.213 36.203s26.147 10.152 36.203 0.213l122.434-121 122.434 121zM476.376 607.977v157.138c0 14.138 11.462 25.6 25.6 25.6s25.6-11.462 25.6-25.6v-157.138c0-14.138-11.462-25.6-25.6-25.6s-25.6 11.462-25.6 25.6zM623.124 172.912c10.056-9.938 26.265-9.843 36.203 0.213s9.843 26.265-0.213 36.203l-140.429 138.785c-9.972 9.856-26.018 9.856-35.99 0l-140.429-138.785c-10.056-9.938-10.152-26.147-0.213-36.203s26.147-10.152 36.203-0.213l122.434 121 122.434-121zM476.376 288.022v-157.138c0-14.138 11.462-25.6 25.6-25.6s25.6 11.462 25.6 25.6v157.138c0 14.138-11.462 25.6-25.6 25.6s-25.6-11.462-25.6-25.6zM213.975 424.685h596.050c14.138 0 25.6 11.462 25.6 25.6s-11.462 25.6-25.6 25.6h-596.050c-14.138 0-25.6-11.462-25.6-25.6s11.462-25.6 25.6-25.6z" />
<glyph unicode="&#xe92a;" glyph-name="minus" d="M283.105 422.4h457.79c14.138 0 25.6 11.462 25.6 25.6s-11.462 25.6-25.6 25.6h-457.79c-14.138 0-25.6-11.462-25.6-25.6s11.462-25.6 25.6-25.6z" />
<glyph unicode="&#xe92b;" glyph-name="plus" d="M537.6 198.296v499.407c0 14.138-11.462 25.6-25.6 25.6s-25.6-11.462-25.6-25.6v-499.407c0-14.138 11.462-25.6 25.6-25.6s25.6 11.462 25.6 25.6zM262.297 422.4h499.407c14.138 0 25.6 11.462 25.6 25.6s-11.462 25.6-25.6 25.6h-499.407c-14.138 0-25.6-11.462-25.6-25.6s11.462-25.6 25.6-25.6z" />
<glyph unicode="&#xe92c;" glyph-name="close" d="M353.535 253.331l353.134 353.134c9.997 9.997 9.997 26.206 0 36.204s-26.206 9.997-36.204 0l-353.134-353.134c-9.997-9.997-9.997-26.206 0-36.204s26.206-9.997 36.204 0zM317.331 606.465l353.134-353.134c9.997-9.997 26.206-9.997 36.204 0s9.997 26.206 0 36.204l-353.134 353.134c-9.997 9.997-26.206 9.997-36.204 0s-9.997-26.206 0-36.204z" />
<glyph unicode="&#xe92d;" glyph-name="move-code" horiz-adv-x="1067" d="M727.553 567.917h-432.889c-14.138 0-25.6-11.462-25.6-25.6s11.462-25.6 25.6-25.6h432.889c14.138 0 25.6 11.462 25.6 25.6s-11.462 25.6-25.6 25.6zM725.829 425.695h-268.837c-14.138 0-25.6-11.462-25.6-25.6s11.462-25.6 25.6-25.6h268.837c14.138 0 25.6 11.462 25.6 25.6s-11.462 25.6-25.6 25.6zM724.967 283.473h-174.022c-14.138 0-25.6-11.462-25.6-25.6s11.462-25.6 25.6-25.6h174.022c14.138 0 25.6 11.462 25.6 25.6s-11.462 25.6-25.6 25.6zM311.281 542.647l65.171 75.758c9.22 10.718 8.006 26.882-2.712 36.102s-26.882 8.006-36.102-2.712l-79.533-92.453c-8.257-9.599-8.257-23.791 0-33.39l79.533-92.453c9.22-10.718 25.384-11.933 36.102-2.712s11.933 25.384 2.712 36.102l-65.171 75.758z" />
<glyph unicode="&#xe92e;" glyph-name="paste" d="M454.542 706.838h95.499c14.138 0 25.6 11.462 25.6 25.6s-11.462 25.6-25.6 25.6h-121.19c-14.174 0-25.65-11.517-25.6-25.691l2.017-568.876c0.050-14.103 11.497-25.509 25.6-25.509h111.731c14.138 0 25.6 11.462 25.6 25.6s-11.462 25.6-25.6 25.6h-86.221l-1.835 517.676zM750.638 473.243h-219.307c-14.138 0-25.6-11.462-25.6-25.6s11.462-25.6 25.6-25.6h219.307c14.138 0 25.6 11.462 25.6 25.6s-11.462 25.6-25.6 25.6zM750.638 589.738h-219.307c-14.138 0-25.6-11.462-25.6-25.6s11.462-25.6 25.6-25.6h219.307c14.138 0 25.6 11.462 25.6 25.6s-11.462 25.6-25.6 25.6zM665.834 353.777h-135.033c-14.138 0-25.6-11.462-25.6-25.6s11.462-25.6 25.6-25.6h135.033c14.138 0 25.6 11.462 25.6 25.6s-11.462 25.6-25.6 25.6zM336.786 471.142h-116.938c-14.138 0-25.6-11.462-25.6-25.6s11.462-25.6 25.6-25.6h116.938c14.138 0 25.6 11.462 25.6 25.6s-11.462 25.6-25.6 25.6zM302.513 513.476c9.123 10.801 7.762 26.953-3.039 36.076s-26.953 7.762-36.076-3.039l-71.579-84.749c-8.057-9.539-8.057-23.498 0-33.037l71.579-84.749c9.123-10.801 25.275-12.162 36.076-3.039s12.162 25.275 3.039 36.076l-57.628 68.23 57.628 68.23z" />
<glyph unicode="&#xe92f;" glyph-name="save" d="M266.87 451.798h241.953c14.138 0 25.6 11.462 25.6 25.6s-11.462 25.6-25.6 25.6h-241.953c-14.138 0-25.6-11.462-25.6-25.6s11.462-25.6 25.6-25.6zM519.412 477.101l-57.628-68.23c-9.123-10.801-7.762-26.953 3.039-36.076s26.953-7.762 36.076 3.039l71.579 84.749c8.057 9.539 8.057 23.498 0 33.037l-71.579 84.749c-9.123 10.801-25.275 12.162-36.076 3.039s-12.162-25.275-3.039-36.076l57.628-68.23zM444.862 700.447l-71.382-97.878c-8.331-11.423-24.345-13.93-35.768-5.599s-13.93 24.345-5.599 35.768l79.051 108.394c4.819 6.608 12.505 10.515 20.684 10.515h282.614c37.703 0 68.267-30.564 68.267-68.267v-470.761c0-37.703-30.564-68.267-68.267-68.267h-318.998c-37.703 0-68.267 30.564-68.267 68.267v109.9c0 14.138 11.462 25.6 25.6 25.6s25.6-11.462 25.6-25.6v-109.9c0-9.426 7.641-17.067 17.067-17.067h318.998c9.426 0 17.067 7.641 17.067 17.067v470.761c0 9.426-7.641 17.067-17.067 17.067h-269.599z" />
<glyph unicode="&#xe930;" glyph-name="refresh" d="M824.27 508.558c9.881 10.113 26.089 10.301 36.201 0.42s10.301-26.089 0.42-36.201l-91.33-93.472c-10.043-10.279-26.578-10.279-36.621 0l-91.33 93.472c-9.881 10.113-9.693 26.321 0.42 36.201s26.321 9.693 36.201-0.42l73.020-74.732 73.020 74.732zM498.829 166.4c-155.523 0-281.6 126.077-281.6 281.6s126.077 281.6 281.6 281.6c155.523 0 281.6-126.077 281.6-281.6 0-14.138-11.462-25.6-25.6-25.6s-25.6 11.462-25.6 25.6c0 127.246-103.154 230.4-230.4 230.4s-230.4-103.154-230.4-230.4c0-127.246 103.154-230.4 230.4-230.4 14.138 0 25.6-11.462 25.6-25.6s-11.462-25.6-25.6-25.6z" />
<glyph unicode="&#xe931;" glyph-name="lock" d="M281.601 533.047v-379.545c0-9.839 7.533-17.355 17.172-17.355h426.456c9.293 0 17.172 7.875 17.172 17.355v379.545c0 9.839-7.533 17.355-17.172 17.355h-426.456c-9.293 0-17.172-7.875-17.172-17.355zM346.765 601.601v73.917c0 75.129 60.37 135.537 135.174 135.537h60.124c74.508 0 135.174-60.684 135.174-135.362v-74.093h47.991c37.889 0 68.372-30.412 68.372-68.555v-379.545c0-37.762-30.808-68.555-68.372-68.555h-426.456c-37.889 0-68.372 30.412-68.372 68.555v379.545c0 37.762 30.808 68.555 68.372 68.555h47.991zM397.965 601.601h228.073v74.093c0 46.404-37.747 84.162-83.974 84.162h-60.124c-46.52 0-83.974-37.478-83.974-84.337v-73.917zM486.402 324.518l-0.002-79.219c0-14.138 11.461-25.6 25.599-25.601s25.6 11.461 25.601 25.599l0.002 79.221c28.519 10.44 48.872 37.821 48.872 69.956 0 41.13-33.343 74.473-74.473 74.473s-74.473-33.343-74.473-74.473c0-32.136 20.354-59.517 48.873-69.956z" />
<glyph unicode="&#xe932;" glyph-name="unlock" d="M634.193 531.454c0.265 3.75 1.364 7.499 3.37 10.973l59.853 103.669c26.029 45.084 10.597 102.547-34.725 128.713l-32.281 18.637c-45.161 26.074-102.806 10.794-128.635-33.943l-58.275-100.935c-7.069-12.244-22.726-16.439-34.97-9.37s-16.439 22.726-9.37 34.97l58.275 100.935c39.999 69.28 128.979 92.865 198.575 52.684l32.281-18.637c69.799-40.298 93.64-129.069 53.466-198.654l-51.409-89.042h33.399c37.724 0 68.075-30.28 68.075-68.256v-376.91c0-37.598-30.674-68.256-68.075-68.256h-423.494c-37.724 0-68.075 30.28-68.075 68.256v376.91c0 37.598 30.674 68.256 68.075 68.256h333.94zM283.378 463.198v-376.91c0-9.672 7.401-17.056 16.875-17.056h423.494c9.13 0 16.875 7.741 16.875 17.056v376.91c0 9.672-7.401 17.056-16.875 17.056h-423.494c-9.13 0-16.875-7.741-16.875-17.056zM486.401 256.182l-0.002-78.735c0-14.138 11.461-25.6 25.599-25.601s25.6 11.461 25.601 25.599l0.002 78.736c28.227 10.416 48.355 37.56 48.355 69.405 0 40.845-33.111 73.956-73.956 73.956s-73.956-33.111-73.956-73.956c0-31.846 20.128-58.99 48.356-69.405z" />
<glyph unicode="&#xe933;" glyph-name="search" d="M385.809 277.647l-120.92-117.96c-12.145-11.847-31.594-11.606-43.441 0.538s-11.606 31.594 0.538 43.441l120.546 117.596c-34.913 44.548-55.715 100.664-55.715 161.594 0 144.664 117.262 262.187 262.233 262.187s262.233-117.522 262.233-262.187c0-144.664-117.262-262.187-262.233-262.187-61.747 0-118.467 21.32-163.241 56.977zM549.050 280.99c110.752 0 200.793 90.241 200.793 201.866s-90.041 201.866-200.793 201.866c-110.752 0-200.793-90.241-200.793-201.866s90.041-201.866 200.793-201.866z" />
<glyph unicode="&#xe934;" glyph-name="time" d="M512 166.4c-155.523 0-281.6 126.077-281.6 281.6s126.077 281.6 281.6 281.6c155.523 0 281.6-126.077 281.6-281.6s-126.077-281.6-281.6-281.6zM512 217.6c127.246 0 230.4 103.154 230.4 230.4s-103.154 230.4-230.4 230.4c-127.246 0-230.4-103.154-230.4-230.4s103.154-230.4 230.4-230.4zM530.050 570.423c0 14.138-11.462 25.6-25.6 25.6s-25.6-11.462-25.6-25.6v-143.045c0-14.138 11.462-25.6 25.6-25.6h127.126c14.138 0 25.6 11.462 25.6 25.6s-11.462 25.6-25.6 25.6h-101.526v117.445z" />
<glyph unicode="&#xe935;" glyph-name="submit" d="M770.548 595.563v-295.126l-255.193-147.533-123.299 71.282c-12.24 7.076-27.899 2.89-34.976-9.35s-2.89-27.899 9.35-34.976l136.112-78.69c7.927-4.583 17.699-4.583 25.626 0l280.793 162.333c7.913 4.575 12.787 13.022 12.787 22.163v324.667c0 9.141-4.874 17.588-12.787 22.163l-280.793 162.333c-7.903 4.569-17.64 4.584-25.557 0.040l-136.068-78.103c-12.262-7.038-16.497-22.684-9.458-34.947s22.684-16.497 34.947-9.458l123.278 70.761 255.239-147.56zM227.851 428.397h306.428c14.138 0 25.6 11.462 25.6 25.6s-11.462 25.6-25.6 25.6h-306.428c-14.138 0-25.6-11.462-25.6-25.6s11.462-25.6 25.6-25.6zM454.063 361.628c-10.253-9.735-10.673-25.939-0.938-36.192s25.939-10.673 36.192-0.938l112.342 106.667c10.631 10.094 10.631 27.036 0 37.13l-112.342 106.667c-10.253 9.735-26.457 9.315-36.192-0.938s-9.315-26.457 0.938-36.192l92.789-88.102-92.789-88.102z" />
<glyph unicode="&#xe936;" glyph-name="tags" d="M282.060 408.12c-6.479-6.479-6.522-17.469-0.050-23.941l166.179-166.179c6.577-6.577 17.32-6.571 23.941 0.050l259.725 259.725c11.182 11.182 20.734 36.911 19.566 53.092l-9.116 126.309c-0.811 11.234-10.99 21.357-21.962 22.090l-125.578 8.385c-16.001 1.068-41.681-8.506-52.981-19.805l-259.725-259.725zM598.177 738.736l125.578-8.385c36.455-2.434 66.968-32.779 69.618-69.49l9.116-126.309c2.236-30.983-12.723-71.274-34.43-92.981l-259.725-259.725c-26.607-26.607-69.768-26.631-96.349-0.050l-166.179 166.179c-26.531 26.531-26.36 69.938 0.050 96.349l259.725 259.725c21.773 21.773 61.907 36.737 92.596 34.688zM668.073 528.28c-20.387-20.387-53.798-20.029-74.626 0.799s-21.186 54.239-0.799 74.626c20.387 20.387 53.798 20.029 74.626-0.799s21.186-54.239 0.799-74.626z" />
<glyph unicode="&#xe937;" glyph-name="send" d="M234.4 478.871c-10.294 2.053-18.292 10.182-20.177 20.508l-42.776 234.309c-3.686 20.188 16.69 36.289 35.479 28.036l660.907-290.286c20.407-8.963 20.407-37.914 0-46.878l-660.907-290.286c-18.789-8.252-39.164 7.849-35.479 28.036l42.776 234.309c1.885 10.326 9.883 18.455 20.177 20.508l154.796 30.871-154.796 30.871zM230.472 200.539l563.406 247.461-563.406 247.461 30.995-169.78 263.627-52.576c27.457-5.476 27.457-44.735 0-50.211l-263.627-52.576-30.995-169.78z" />
<glyph unicode="&#xe938;" glyph-name="trash" d="M323.478 684.352l33.191-505.822c0.589-8.973 8.038-15.949 17.030-15.949h282.156c9.060 0 16.541 7.080 17.041 16.126l27.91 505.646h-377.327zM624.185 735.552h103.672c0.019 0 0.039 0 0.058 0h55.871c14.138 0 25.6-11.462 25.6-25.6s-11.462-25.6-25.6-25.6h-31.703l-28.065-508.467c-1.997-36.186-31.922-64.504-68.163-64.504h-282.156c-35.967 0-65.765 27.907-68.12 63.797l-33.411 509.175h-31.954c-14.138 0-25.6 11.462-25.6 25.6s11.462 25.6 25.6 25.6h55.871c0.019 0 0.039 0 0.058 0h103.776l32.963 66.796c4.312 8.739 13.212 14.271 22.957 14.271h114.413c9.969 0 19.032-5.788 23.225-14.832l30.708-66.235zM567.75 735.552l-13.847 29.867h-82.15l-14.739-29.867h110.736zM618.959 323.975v177.854c0 14.138-11.462 25.6-25.6 25.6s-25.6-11.462-25.6-25.6v-177.854c0-14.138 11.462-25.6 25.6-25.6s25.6 11.462 25.6 25.6zM448.292 323.975v177.854c0 14.138-11.462 25.6-25.6 25.6s-25.6-11.462-25.6-25.6v-177.854c0-14.138 11.462-25.6 25.6-25.6s25.6 11.462 25.6 25.6zM533.625 319.549v182.796c0 14.138-11.462 25.6-25.6 25.6s-25.6-11.462-25.6-25.6v-182.796c0-14.138 11.462-25.6 25.6-25.6s25.6 11.462 25.6 25.6z" />
<glyph unicode="&#xe939;" glyph-name="facebook-l" d="M402.564 565.568v48.691c0 112.268 77.693 186.726 193.762 186.726l90.898-0.131c21.647 0.002 39.898-17.078 39.795-38.925v-99.934c0-21.907-18.255-38.96-39.888-38.96l-61.229-0.032c-24.356 0-24.349 0.007-24.349-20.050v-37.384h81.309c10.231 0 20.121-3.822 27.595-10.806 7.817-7.305 12.307-17.442 12.307-28.162l-0.035-107.649c0-21.939-18.252-38.96-39.901-38.96h-81.239v-246.017c0-21.907-18.255-38.96-39.901-38.96h-119.222c-21.679 0-39.901 17.052-39.901 38.96v246.017h-65.787c-21.646 0-39.901 17.053-39.901 38.96v107.657c0 21.907 18.255 38.96 39.901 38.96h65.787zM675.82 762.050c0-0.045 0-0.090 0-0.134v0.134zM596.289 749.785c-88.23 0-142.525-52.034-142.525-135.526v-74.291c0-14.138-11.462-25.6-25.6-25.6h-80.088v-83.176h80.088c14.138 0 25.6-11.462 25.6-25.6v-259.377h96.625v259.377c0 14.138 11.462 25.6 25.6 25.6h95.544l0.027 83.176h-95.607c-14.138 0-25.6 11.462-25.6 25.6v62.984c0 47.704 22.245 71.25 75.536 71.25l49.931 0.026v75.441l-79.531 0.114z" />
<glyph unicode="&#xe93a;" glyph-name="love" d="M493.712 626.445c63.683 63.047 167.926 63.047 231.609 0 63.825-63.188 63.825-164.878 0-228.065-29.151-28.86-51.954-51.447-105.122-104.119l-1.822-1.805c-49.994-49.527-74.399-73.7-103.262-102.275-16.23-16.155-44.165-16.155-60.363-0.031l-210.255 208.578c-63.739 63.221-63.635 164.862 0.191 228.048 31.007 30.698 72.623 47.334 116.173 47.331 42.772-0.614 85.299-16.574 115.454-47.348l8.861-8.788 8.538 8.473zM582.343 328.83l1.822 1.805c53.172 52.676 75.978 75.265 105.134 104.13 43.588 43.152 43.588 112.143 0 155.295-43.731 43.294-115.835 43.294-159.544 0.022l-26.544-26.342c-9.979-9.903-26.078-9.906-36.060-0.005l-27.15 26.931c-20.309 20.723-49.868 31.817-79.51 32.245-29.87 0-58.496-11.443-79.784-32.519-43.61-43.174-43.68-112.141-0.155-155.313l204.37-202.739c26.487 26.223 50.85 50.356 97.42 96.49zM479.044 226.518c3.685 3.669 8.026 3.68 11.764-0.016l-5.885 5.838c-1.945-1.926-3.902-3.863-5.88-5.821zM68.083 209.29l67.735 139.752c6.166 12.723 0.851 28.036-11.871 34.202s-28.036 0.851-34.202-11.871l-83.597-172.48c-7.726-15.941 2.685-34.723 20.298-36.618l190.571-20.506c14.057-1.513 26.679 8.657 28.192 22.714s-8.657 26.679-22.714 28.192l-154.41 16.615zM888.182 546.957c-6.166-12.723-0.851-28.036 11.871-34.202s28.036-0.851 34.202 11.871l83.597 172.48c7.726 15.941-2.685 34.723-20.298 36.618l-190.571 20.506c-14.057 1.513-26.679-8.657-28.192-22.714s8.657-26.679 22.714-28.192l154.41-16.615-67.735-139.752z" />
<glyph unicode="&#xe93b;" glyph-name="layout-dock" d="M571.268 622.233h-332.8v-348.465h332.8v348.465zM622.468 622.233v-348.465h163.063v348.465h-163.063zM212.868 673.433h598.263c14.138 0 25.6-11.462 25.6-25.6v-399.665c0-14.138-11.462-25.6-25.6-25.6h-598.263c-14.138 0-25.6 11.462-25.6 25.6v399.665c0 14.138 11.462 25.6 25.6 25.6z" />
<glyph unicode="&#xe93c;" glyph-name="layout-float" d="M235.593 273.767h552.815v348.465h-552.815v-348.465zM209.993 673.432h604.015c14.138 0 25.6-11.462 25.6-25.6v-399.665c0-14.138-11.462-25.6-25.6-25.6h-604.015c-14.138 0-25.6 11.462-25.6 25.6v399.665c0 14.138 11.462 25.6 25.6 25.6zM463.056 327.444h251.199c14.138 0 25.6 11.462 25.6 25.6s-11.462 25.6-25.6 25.6h-251.199c-14.138 0-25.6-11.462-25.6-25.6s11.462-25.6 25.6-25.6z" />
<glyph unicode="&#xe93d;" glyph-name="layout-side" d="M690.735 622.232h-452.267v-348.465h452.267v348.465zM741.935 622.232v-348.465h43.596v348.465h-43.596zM212.868 673.432h598.263c14.138 0 25.6-11.462 25.6-25.6v-399.665c0-14.138-11.462-25.6-25.6-25.6h-598.263c-14.138 0-25.6 11.462-25.6 25.6v399.665c0 14.138 11.462 25.6 25.6 25.6z" />
<glyph unicode="&#xe93e;" glyph-name="layout-split" d="M238.469 622.233v-348.465h547.063v348.465h-547.063zM212.869 673.433h598.263c14.138 0 25.6-11.462 25.6-25.6v-399.665c0-14.138-11.462-25.6-25.6-25.6h-598.263c-14.138 0-25.6 11.462-25.6 25.6v399.665c0 14.138 11.462 25.6 25.6 25.6zM485.936 624.463v-354.389h51.2v354.389z" />
<glyph unicode="&#xe93f;" glyph-name="facebook" d="M687.222 775.255l-90.898 0.131c-102.13 0-168.125-63.245-168.125-161.126v-74.291h-91.387c-7.883 0-14.301-5.996-14.301-13.36v-107.657c0-7.364 6.419-13.36 14.301-13.36h91.387v-271.617c0-7.364 6.383-13.36 14.301-13.36h119.222c7.883 0 14.301 5.996 14.301 13.36v271.617h106.839c7.883 0 14.301 5.962 14.301 13.36l0.035 107.657c0 3.552-1.5 6.94-4.186 9.45s-6.313 3.91-10.116 3.91h-106.909v62.984c0 30.27 7.708 45.65 49.949 45.65l61.216 0.032c7.883 0 14.301 5.996 14.301 13.36v99.934c0.035 7.364-6.348 13.327-14.231 13.327l-0.001-0.002z" />
<glyph unicode="&#xe940;" glyph-name="githu-l" d="M342.728 570.293c3.494-8.957 1.675-19.117-4.71-26.305-20.038-22.559-30.713-50.358-30.713-82.931 0-107.161 46.154-147.083 142.343-158.164 21.96-2.53 30.606-29.83 14.106-44.54-6.963-6.208-12.637-17.681-14.57-31.48-0.591-17.69-0.97-42.668-1.176-71.941-0.131-18.625-0.169-34.083-0.169-48.517 0-27.721-23.004-48.611-58.812-41.887-157.426 53.803-265.294 204.59-265.294 377.007 0 219.439 173.61 397.44 388.267 397.44s388.267-178.001 388.267-397.446c-0.043-170.58-106.281-322.276-267.524-377.855-32.421-6.648-55.676 14.811-55.676 42.741 0 2.909 0.015 5.711 0.071 14.451 0.071 10.161 0.071 10.161 0.156 22.896 0.147 22.989 0.226 43.473 0.226 64.909 0 24.664-6.597 41.445-15.834 49.609-16.602 14.674-7.987 42.077 14.024 44.613 96.682 11.138 142.796 50.795 142.796 158.164 0 32.859-10.547 60.228-30.713 82.931-6.385 7.188-8.204 17.348-4.71 26.305 6.289 16.119 8.602 37.487 1.811 63.313-1.855-0.408-3.901-0.928-6.144-1.579-16.198-4.699-36.339-14.75-60.541-31.617-6.331-4.413-14.315-5.733-21.73-3.595-26.471 7.633-54.89 11.547-83.574 11.547s-57.103-3.914-83.574-11.547c-7.376-2.127-15.317-0.832-21.635 3.529-24.329 16.793-44.572 26.826-60.853 31.55-2.172 0.63-4.16 1.139-5.97 1.545-6.737-25.751-4.42-47.062 1.855-63.146zM849.065 441.535c0 191.444-150.977 346.24-337.067 346.24s-337.067-154.796-337.067-346.24c0-148.554 91.506-278.407 221.712-325.752 0.015 11.891 0.061 24.704 0.165 39.509 0.209 29.69 0.594 55.041 1.407 75.768 1.294 9.858 3.528 19.067 6.601 27.506-95.372 21.701-148.713 81.643-148.713 202.491 0 39.836 11.91 75.555 34.146 105.305-7.456 28.252-7.001 62.983 8.404 102.469 2.8 7.177 8.683 12.711 16.017 15.068 2.199 0.655 3.502 0.966 5.788 1.326 24.395 3.841 59.67-5.682 106.375-36.073 27.697 6.904 56.795 10.411 86.069 10.411 29.251 0 58.327-3.502 86.004-10.395 46.618 30.6 81.958 40.119 106.518 36.070 2.394-0.395 3.761-0.736 6.046-1.449 7.184-2.418 12.926-7.896 15.681-14.958 15.403-39.48 15.86-74.206 8.408-102.456 22.312-29.769 34.143-65.195 34.143-105.318 0-121.128-53.361-180.832-149.086-202.501 5.276-14.499 8.1-31.303 8.1-49.886 0-21.558-0.080-42.145-0.227-65.235-0.085-12.771-0.085-12.771-0.156-22.916-0.011-1.626-0.020-3.040-0.027-4.284 132.224 50.093 220.721 179.691 220.757 325.3zM413.463 216.296c-0.56-0.223-2.316-0.793-5.004-1.428-12.902-3.047-26.737-2.614-39.201 3.407-5.41 2.613-10.493 6.261-15.244 11.129-4.706 4.821-39.341 41.398-47.461 48.949-5.139 4.779-10.155 9.002-15.622 13.12-2.968 2.235-6.078 4.444-9.407 6.684-9.776 6.576-23.032 3.982-29.608-5.794s-3.982-23.032 5.794-29.608c2.712-1.824 5.205-3.596 7.555-5.365 4.259-3.207 8.148-6.482 12.233-10.28 6.952-6.465 40.353-41.738 45.984-47.507 8.225-8.427 17.363-14.986 27.22-19.747 22.529-10.882 45.953-11.616 67.566-6.512 4.852 1.146 8.585 2.357 11.002 3.32 10.944 4.364 16.278 16.774 11.913 27.718s-16.774 16.278-27.718 11.913z" />
<glyph unicode="&#xe941;" glyph-name="github" d="M512 812.171c-200.373 0-362.667-166.398-362.667-371.84 0-164.539 103.813-303.514 247.973-352.783 18.133-3.254 24.933 7.902 24.933 17.662 0 8.831-0.453 38.114-0.453 69.255-91.12-17.198-114.693 22.775-121.947 43.691-4.080 10.69-21.76 43.691-37.173 52.522-12.693 6.972-30.827 24.17-0.453 24.634 28.56 0.465 48.96-26.958 55.76-38.114 32.64-56.241 84.773-40.438 105.627-30.677 3.173 24.17 12.693 40.438 23.12 49.734-80.693 9.296-165.013 41.367-165.013 183.596 0 40.438 14.053 73.903 37.173 99.932-3.627 9.296-16.32 47.41 3.627 98.538 0 0 30.373 9.761 99.733-38.114 29.013 8.366 59.84 12.55 90.667 12.55s61.653-4.183 90.667-12.55c69.36 48.339 99.733 38.114 99.733 38.114 19.947-51.128 7.253-89.242 3.627-98.538 23.12-26.029 37.173-59.030 37.173-99.932 0-142.694-84.773-174.3-165.467-183.596 13.147-11.62 24.48-33.93 24.48-68.79 0-49.734-0.453-89.706-0.453-102.256 0-9.761 6.8-21.381 24.933-17.662 147.626 51.098 247.027 193.031 247.067 352.783 0 205.442-162.293 371.84-362.667 371.84v0z" />
<glyph unicode="&#xe942;" glyph-name="gmail-l" d="M434.72 426.391l-239.319-189.054c4.5-7.134 12.375-11.826 21.329-11.826h590.541c11.763 0 21.87 8.415 24.592 19.666l-238.302 184.845-65.001-55.137c-9.553-8.103-23.567-8.103-33.12 0l-60.72 51.506zM401.529 454.545l-210.111 178.228v-344.208l210.111 165.98zM626.812 458.227l205.77-159.611v334.156l-205.77-174.545zM841.622 707.58c16.632 14.108 42.16 2.287 42.16-19.522v-436.829c0-42.37-34.387-76.918-76.511-76.918h-590.541c-42.325 0-76.511 34.42-76.511 76.918v436.829c0 21.81 25.528 33.631 42.16 19.522l329.622-279.603 329.622 279.603z" />
<glyph unicode="&#xe943;" glyph-name="gmail" d="M420.791 413.156l-212.307-164.814v-51.1c0-0.005 0-0.011 0-0.016h607.030c0 0.005 0 0.011 0 0.016v57.798l-208.184 161.613-67.731-57.453c-15.922-13.506-39.278-13.506-55.2 0l-63.608 53.956zM387.543 441.36l-179.059 151.887v-290.891l179.059 139.003zM640.579 444.857l174.935-135.802v284.192l-174.935-148.39zM152.955 156.549c-17.278 5.456-29.804 21.612-29.804 40.694v488.146c0 36.349 42.547 56.051 70.267 32.537l318.582-270.239 318.582 270.239c27.72 23.513 70.267 3.812 70.267-32.537v-488.146c0-23.246-18.59-42.15-41.714-42.656-0.355-0.018-0.711-0.026-1.070-0.026h-696.101c-3.218 0-6.271 0.713-9.007 1.989z" />
<glyph unicode="&#xe944;" glyph-name="google-l" d="M512.001 763.353c-173.86 0-315.354-141.494-315.354-315.354s141.492-315.354 315.353-315.354c173.86 0 315.354 141.494 315.354 315.354v39.324h-289.754v-78.682h175.244c17.385 0 29.714-16.958 24.352-33.496-31.391-96.815-121.955-163.818-225.196-163.818-130.517 0-236.671 106.143-236.671 236.671s106.154 236.671 236.671 236.671c44.012 0 86.148-11.868 123.078-34.473l48.223 62.631c-50.962 33.156-109.617 50.524-171.301 50.524zM512 357.442c-14.138 0-25.6 11.462-25.6 25.6v129.882c0 14.138 11.462 25.6 25.6 25.6h340.954c14.138 0 25.6-11.462 25.6-25.6v-64.924c0-202.137-164.417-366.554-366.554-366.554s-366.554 164.416-366.554 366.554c0.001 202.137 164.418 366.554 366.555 366.554 81.595 0 158.951-26.295 223.442-75.979 11.198-8.627 13.284-24.697 4.66-35.898l-79.244-102.919c-8.627-11.204-24.704-13.292-35.907-4.662-32.619 25.128-71.596 38.377-112.952 38.377-102.242 0-185.471-83.221-185.471-185.471s83.23-185.471 185.471-185.471c68.335 0 129.635 37.514 161.839 94.913h-161.839z" />
<glyph unicode="&#xe945;" glyph-name="google" d="M171.047 447.999c0 187.998 152.955 340.954 340.954 340.954 75.924 0 147.79-24.414 207.818-70.659l-79.244-102.919c-37.090 28.572-81.558 43.697-128.575 43.697-116.368 0-211.071-94.67-211.071-211.071s94.705-211.071 211.071-211.071c93.731 0 173.378 61.403 200.844 146.113h-200.844v129.882h340.954v-64.924c0-187.998-152.955-340.954-340.954-340.954s-340.954 152.955-340.954 340.954h0.001z" />
<glyph unicode="&#xe946;" glyph-name="linkedin-l" d="M312.155 607.17c20.125 0 36.568-16.237 36.568-36.429v-433.004c0-20.194-16.443-36.429-36.568-36.429h-136.51c-20.125 0-36.568 16.235-36.568 36.429v433.004c0 20.192 16.443 36.429 36.568 36.429h136.51zM190.278 555.97v-403.462h107.245v403.462h-107.245zM243.949 858.693c63.696 0 115.61-51.242 115.607-114.443 0-63.219-51.91-114.48-115.607-114.48-63.733 0-115.679 51.255-115.679 114.48 0 63.207 51.949 114.443 115.679 114.443zM243.949 807.493c-35.61 0-64.479-28.473-64.479-63.243 0-34.794 28.871-63.28 64.479-63.28 35.563 0 64.407 28.483 64.407 63.281 0.002 34.773-28.84 63.242-64.407 63.242zM695.644 617.932c148.999 0 200.086-85.529 200.086-242.687v-237.51c0-20.194-16.443-36.429-36.568-36.429h-136.262c-20.125 0-36.568 16.235-36.568 36.429v210.525c0 63.704-6.354 78.432-34.321 78.432-34.54 0-45.229-15.139-45.229-74.718v-214.237c0-20.194-16.443-36.429-36.568-36.429h-136.212c-20.125 0-36.568 16.235-36.568 36.429v433.004c0 20.192 16.443 36.429 36.568 36.429h130.732c12.644 0 23.834-6.409 30.407-16.182 28.46 17.12 62.687 26.943 100.501 26.943zM844.53 375.245c0 132.569-35.192 191.487-148.886 191.487-42.243 0-77.458-16.017-101.191-41.545-15.837-17.035-44.349-5.829-44.349 17.431v13.352h-101.467v-403.462h106.947v199.466c0 84.803 29.030 125.918 96.429 125.918 68.012 0 85.521-40.584 85.521-129.632v-195.754h106.997v222.739z" />
<glyph unicode="&#xe947;" glyph-name="linkedin" d="M312.154 581.57h-136.51c-6.059 0-10.968-4.849-10.968-10.829v-433.004c0-5.982 4.909-10.829 10.968-10.829h136.51c6.059 0 10.968 4.847 10.968 10.829v433.004c0 5.98-4.909 10.829-10.968 10.829v0zM243.948 833.094c-49.67 0-90.079-39.855-90.079-88.843 0-49.010 40.409-88.88 90.079-88.88 49.631 0 90.007 39.872 90.007 88.88 0.002 48.988-40.376 88.843-90.007 88.843v0zM575.703 542.618v28.123c0 5.98-4.909 10.829-10.968 10.829h-130.732c-6.059 0-10.968-4.849-10.968-10.829v-433.004c0-5.982 4.909-10.829 10.968-10.829h136.212c6.059 0 10.968 4.847 10.968 10.829v214.237c0 72.193 19.86 100.318 70.829 100.318 55.509 0 59.921-45.088 59.921-104.032v-210.525c0-5.982 4.909-10.829 10.968-10.829h136.262c6.059 0 10.968 4.847 10.968 10.829v237.51c0 107.348-20.731 217.087-174.486 217.087-54.827 0-95.357-23.272-119.94-49.714z" />
<glyph unicode="&#xe948;" glyph-name="maven" d="M649.775 622.21c18.654 7.791 37.485 14.83 56.904 21.376-8.92-31.031-20.286-65.056-32.355-102.12 16.092 17.989 52.951 90.947 78.786 140.49 63.592 79.691 143.921 125.994 210.624 14.804 53.023-51.368-132.975-224.5-196.031-295.337-30.961 4.301-59.879 5.285-79.554-0.847 20.79-7.29 40.58-14.35 58.959-21.44-110.001-114.41-161.023-140.869-348.724-222.842-84.247-50.657-128.921-19.218-148.015 5.906-119.17-50.766-225.633-73.866-238.67-74.059-4.234-0.090-4.455 3.519-1.887 3.994 124.136 46.417 529.369 195.526 785.63 481.146-187.827-158.027-449.264-295.344-594.633-371.373-14.422 90.093-5.6 91.587 31.783 137.666s143.645 122.139 362.834 257.113c1.77-34.922-6.681-80.65-21.046-130.706 22.22 24.758 51.656 94.462 75.397 156.23z" />
<glyph unicode="&#xe949;" glyph-name="slack-l" d="M665.641 680.911l-433.105-201.96c-12.814-5.975-18.358-21.207-12.382-34.021s21.207-18.358 34.021-12.382l433.105 201.96c12.814 5.975 18.358 21.207 12.382 34.021s-21.207 18.358-34.021 12.382zM769.825 457.49l-433.105-201.96c-12.814-5.975-18.358-21.207-12.382-34.021s21.207-18.358 34.021-12.382l433.105 201.96c12.814 5.975 18.358 21.207 12.382 34.021s-21.207 18.358-34.021 12.382zM739.702 294.358l-201.96 433.105c-5.975 12.814-21.207 18.358-34.021 12.382s-18.358-21.207-12.382-34.021l201.96-433.105c5.975-12.814 21.207-18.358 34.021-12.382s18.358 21.207 12.382 34.021zM516.28 190.175l-201.96 433.105c-5.975 12.814-21.207 18.358-34.021 12.382s-18.358-21.207-12.382-34.021l201.96-433.105c5.975-12.814 21.207-18.358 34.021-12.382s18.358 21.207 12.382 34.021z" />
<glyph unicode="&#xe94a;" glyph-name="slack" d="M656.426 706.261l-433.105-201.96c-21.356-9.959-30.596-35.344-20.637-56.701s35.344-30.596 56.701-20.637l433.105 201.96c21.356 9.959 30.596 35.344 20.637 56.701s-35.344 30.596-56.701 20.637zM764.616 474.246l-433.105-201.96c-21.356-9.959-30.596-35.344-20.637-56.701s35.344-30.596 56.701-20.637l433.105 201.96c21.356 9.959 30.596 35.344 20.637 56.701s-35.344 30.596-56.701 20.637zM757.774 301.571l-201.96 433.105c-9.959 21.356-35.344 30.596-56.701 20.637s-30.596-35.344-20.637-56.701l201.96-433.105c9.959-21.356 35.344-30.596 56.701-20.637s30.596 35.344 20.637 56.701zM534.353 197.387l-201.96 433.105c-9.959 21.356-35.344 30.596-56.701 20.637s-30.596-35.344-20.637-56.701l201.96-433.105c9.959-21.356 35.344-30.596 56.701-20.637s30.596 35.344 20.637 56.701z" />
<glyph unicode="&#xe94b;" glyph-name="sof" d="M744.107 103.822v221.867h76.459v-298.667h-649.899v298.667h76.459v-221.867zM320.853 345.6l354.987-76.8 13.653 73.956-354.987 76.8-13.653-73.956zM367.275 524.8l327.68-159.289 30.037 68.267-327.68 159.289-30.037-68.267zM460.117 692.622l278.528-241.778 46.421 56.889-278.528 241.778-46.421-56.889zM637.611 868.978l-57.344-45.511 215.723-301.511 57.344 45.511-215.723 301.511zM315.392 174.933h363.179v76.8h-363.179v-76.8z" />
<glyph unicode="&#xe94c;" glyph-name="trello-l" d="M217.6 725.014v-554.028c0-9.654 7.744-17.386 17.386-17.386h554.028c9.654 0 17.386 7.744 17.386 17.386v554.028c0 9.654-7.744 17.386-17.386 17.386h-554.028c-9.654 0-17.386-7.744-17.386-17.386zM166.4 725.014c0 37.902 30.639 68.586 68.586 68.586h554.028c37.902 0 68.586-30.639 68.586-68.586v-554.028c0-37.902-30.639-68.586-68.586-68.586h-554.028c-37.902 0-68.586 30.639-68.586 68.586v554.028zM317.155 252.062h126.578v391.877h-126.578v-391.877zM265.955 648.168c0 25.848 20.926 46.971 46.692 46.971h135.595c25.912 0 46.692-20.841 46.692-46.971v-400.336c0-25.848-20.926-46.971-46.692-46.971h-135.595c-25.912 0-46.692 20.841-46.692 46.971v400.336zM583.822 418.216h126.578v225.723h-126.578v-225.723zM532.622 647.809c0 25.952 20.829 47.33 46.692 47.33h135.595c26.039 0 46.692-20.929 46.692-47.33v-233.464c0-25.952-20.829-47.33-46.692-47.33h-135.595c-26.039 0-46.692 20.929-46.692 47.33v233.464z" />
<glyph unicode="&#xe94d;" glyph-name="trello" d="M192 725.014c0 23.741 19.154 42.986 42.986 42.986h554.028c23.741 0 42.986-19.154 42.986-42.986v-554.028c0-23.741-19.154-42.986-42.986-42.986h-554.028c-23.741 0-42.986 19.154-42.986 42.986v554.028zM291.555 648.168v-400.336c0-12.116 9.443-21.371 21.092-21.371h135.595c11.533 0 21.092 9.568 21.092 21.371v400.336c0 12.116-9.443 21.371-21.092 21.371h-135.595c-11.533 0-21.092-9.568-21.092-21.371zM558.222 647.808v-233.464c0-12.516 9.443-21.73 21.092-21.73h135.595c11.533 0 21.092 9.729 21.092 21.73v233.464c0 12.516-9.443 21.73-21.092 21.73h-135.595c-11.533 0-21.092-9.729-21.092-21.73z" />
<glyph unicode="&#xe94e;" glyph-name="twitter-l" d="M905.157 676.453c-19.619-31.002-43.925-58.53-71.823-81.33l0.2-8.509c0-255.615-188.94-481.43-458.307-481.43-88.915 0-174.091 26.836-247.459 76.478-22.238 15.046-9.264 49.818 17.395 46.62 11.112-1.333 22.172-2.009 33.211-2.009 44.139 0 86.68 10.735 124.932 30.837-48.224 20.47-86.363 62.541-102.566 115.873-3.090 10.171 0.39 20.115 7.285 26.397-38.027 34.355-61.658 85.090-61.658 140.757 0 15.704 10.282 25.815 22.273 27.43-13.559 26.487-21.018 56.506-21.018 87.789 0 33.125 8.269 64.993 23.79 92.958 8.922 16.076 31.378 17.784 42.63 3.243 66.001-85.294 160.056-140.777 263.847-154.588-0.109 2.686-0.164 5.381-0.164 8.083 0 102.282 79.284 185.765 177.706 185.765 44.827 0 86.989-17.448 119.237-47.977 26.331 6.936 51.487 17.844 74.855 32.388 20.079 12.497 44.916-6.587 38.012-29.208-3.386-11.094-7.75-21.767-12.998-31.896 22.521 8.654 43.932-16.635 30.619-37.673zM807.975 640.719c-2.849-0.437-5.707-0.835-8.573-1.195-27.155-3.411-39.999 32.435-16.858 47.047 4.194 2.648 8.228 5.543 12.085 8.665-7.572-2.177-15.232-4.077-22.97-5.693-8.973-1.874-18.264 1.192-24.358 8.040-23.77 26.709-56.69 42.036-91.868 42.036-69.538 0-126.506-59.986-126.506-134.565 0-10.589 1.128-20.991 3.33-30.983 3.641-16.518-9.453-31.963-26.344-31.075-116.391 6.119-224.044 58.211-303.704 143.527-2.235-10.077-3.386-20.517-3.386-31.167 0-45.856 21.682-87.699 56.773-112.413 20.824-14.666 9.784-47.437-15.67-46.513-12.643 0.459-25.087 2.312-37.164 5.478 13.14-47.187 49.994-83.967 96.507-93.832 26.13-5.542 27.375-42.376 1.679-49.67-11.291-3.205-22.864-5.263-34.599-6.119 22.739-34.619 60.125-56.757 101.415-57.556 23.748-0.46 34.121-30.205 15.808-45.332-42.003-34.696-91.236-58.149-143.934-68.426 43.037-16.152 88.72-24.59 135.589-24.59 238.869 0 407.107 201.074 407.115 429.619l-0.495 20.733c-0.197 8.264 3.608 16.116 10.218 21.080 5.45 4.094 10.757 8.399 15.91 12.903z" />
<glyph unicode="&#xe94f;" glyph-name="twitter" d="M882.707 690.146c-27.277-12.733-56.569-21.36-87.315-25.222 31.406 19.829 55.447 51.243 66.84 88.57-29.457-18.333-61.985-31.657-96.627-38.893-27.74 31.17-67.235 50.617-110.992 50.617-83.979 0-152.106-71.733-152.106-160.165 0-12.558 1.354-24.804 3.93-36.493-126.381 6.644-238.463 70.412-313.46 167.331-13.11-23.622-20.574-51.139-20.574-80.535 0-55.592 26.882-104.643 67.632-133.343-24.9 0.904-48.346 8.14-68.887 20.142v-2.018c0-77.612 52.442-142.354 121.989-157.104-12.747-3.618-26.188-5.6-40.091-5.6-9.808 0-19.319 1.009-28.632 2.991 19.352-63.697 75.525-110.001 142.034-111.288-52.012-42.964-117.63-68.463-188.895-68.463-12.285 0-24.371 0.765-36.259 2.191 67.302-45.538 147.219-72.081 233.113-72.081 279.776 0 432.707 244.11 432.707 455.83l-0.495 20.733c29.92 22.473 55.744 50.652 76.086 82.796l0.001 0.003z" />
<glyph unicode="&#xe950;" glyph-name="android" d="M612.36 763.309c62.169-28.257 105.772-81.95 111.308-144.617h-423.336c5.556 62.667 49.156 116.362 111.329 144.618l-39.104 55.453c-2.321 3.3-1.745 7.629 1.288 9.669 3.033 2.035 7.372 1.025 9.701-2.271l40.62-57.609c26.771 10.309 56.509 16.046 87.845 16.046s61.066-5.742 87.839-16.046l40.626 57.607c2.304 3.3 6.651 4.306 9.682 2.271 3.035-2.046 3.613-6.373 1.291-9.669l-39.090-55.453zM423.574 675.902c12.93 0 23.413 10.245 23.411 22.882 0 12.641-10.481 22.884-23.411 22.884-12.945 0-23.424-10.247-23.424-22.884 0-12.639 10.485-22.882 23.424-22.882zM600.429 675.902c12.94 0 23.422 10.245 23.422 22.882s-10.479 22.884-23.422 22.884c-12.93 0-23.413-10.243-23.413-22.884 0-12.639 10.483-22.882 23.413-22.882zM273.152 357.34c0-25.48-21.144-46.136-47.227-46.136v0c-26.081 0-47.225 20.657-47.225 46.136v186.614c0 25.48 21.144 46.136 47.225 46.136v0c26.083 0 47.227-20.657 47.227-46.136v-186.614zM300.325 588.663v-337.042c0-20.016 16.61-36.246 37.105-36.246h43.888v-103.707c0-25.482 21.142-46.136 47.225-46.136s47.227 20.655 47.227 46.136v103.707h72.466v-103.707c0-25.482 21.14-46.136 47.225-46.136s47.225 20.655 47.225 46.136v103.707h43.888c20.494 0 37.108 16.22 37.108 36.246v337.042h-423.355zM750.85 357.34c0-25.48 21.142-46.136 47.225-46.136v0c26.081 0 47.225 20.657 47.225 46.136v186.614c0 25.48-21.144 46.136-47.225 46.136v0c-26.083 0-47.225-20.657-47.225-46.136v-186.614z" />
<glyph unicode="&#xe951;" glyph-name="apple" d="M818.586 282.104c-11.491-26.814-25.092-51.495-40.85-74.188-21.48-30.935-39.068-52.348-52.622-64.239-21.011-19.518-43.523-29.514-67.63-30.082-17.306 0-38.177 4.974-62.471 15.065-24.374 10.043-46.774 15.018-67.255 15.018-21.48 0-44.518-4.974-69.159-15.018-24.679-10.091-44.56-15.349-59.76-15.87-23.117-0.995-46.159 9.285-69.159 30.888-14.68 12.933-33.041 35.104-55.037 66.513-23.6 33.541-43.003 72.435-58.203 116.777-16.279 47.895-24.44 94.274-24.44 139.175 0 51.434 11.003 95.795 33.041 132.969 17.32 29.86 40.362 53.414 69.201 70.706s59.999 26.103 93.557 26.667c18.361 0 42.44-5.737 72.362-17.012 29.838-11.313 48.997-17.050 57.396-17.050 6.28 0 27.563 6.708 63.644 20.082 34.12 12.403 62.917 17.538 86.507 15.515 63.925-5.211 111.951-30.665 143.89-76.523-57.171-34.99-85.452-83.999-84.889-146.869 0.516-48.97 18.103-89.722 52.669-122.078 15.665-15.018 33.158-26.624 52.622-34.867-4.221-12.365-8.676-24.208-13.413-35.578v0zM671.976 864.851c0-38.383-13.882-74.221-41.554-107.392-33.393-39.434-73.783-62.221-117.584-58.625-0.558 4.605-0.882 9.451-0.882 14.544 0 36.847 15.88 76.282 44.082 108.524 14.079 16.325 31.986 29.899 53.701 40.727 21.668 10.667 42.163 16.566 61.439 17.576 0.563-5.131 0.797-10.263 0.797-15.353v0z" />
<glyph unicode="&#xe952;" glyph-name="go" d="M112.969 423.174h764.624c14.138 0 25.6 11.462 25.6 25.6s-11.462 25.6-25.6 25.6h-764.624c-14.138 0-25.6-11.462-25.6-25.6s11.462-25.6 25.6-25.6zM710.732 287.89c-10.038-9.957-10.104-26.165-0.148-36.204s26.165-10.104 36.204-0.148l179.747 178.286c10.096 10.014 10.096 26.337 0 36.351l-179.747 178.286c-10.038 9.957-26.247 9.89-36.204-0.148s-9.89-26.247 0.148-36.204l161.422-160.11-161.422-160.11z" />
<glyph unicode="&#xe953;" glyph-name="java" d="M767.626 149.269c-41.302-31.194-92.189-50.696-150.497-60.099-67.92-10.953-140.494-7.707-210.311 4.335-13.857 2.39-26.452 4.952-37.548 7.514-6.673 1.541-11.374 2.744-13.868 3.437l1.293 7.611c129.783-11.874 240.655-2.85 331.438 19.425 21.889 5.371 40.815 11.121 56.72 16.865 9.504 3.433 15.867 6.089 19.028 7.583l4.232-0.837-0.488-5.834zM499.349 452.216c-2.868 1.537-7.673 4.428-13.779 8.637-10.111 6.969-20.216 15.172-29.675 24.59-31.098 30.964-48.237 67.569-43.345 109.176 5.637 47.944 32.121 83.11 81.069 121.736 8.179 6.454 35.542 26.975 35.116 26.65 12.56 9.593 20.775 16.555 27.033 23.186 4.034 4.275 7.057 8.247 9.125 11.999 3.886 7.051 6.879 14.968 9.042 23.611 4.632 18.513 5.168 38.476 3.269 56.721-0.364 3.502-0.721 5.981-0.941 7.219-1.903 10.713 12.020 16.042 17.262 6.607 2.461-4.43 6.023-11.906 9.569-21.47 5.92-15.968 9.511-32.014 9.566-47.316 0.022-6.149-0.54-12.069-1.744-17.72-8.368-39.312-31.972-67.149-78.794-101.362-8.113-5.929-14.715-10.554-30.51-21.477-1.251-0.865-11.664-7.895-14.725-10.055-49.080-34.631-51.634-77.654 24.297-186.418 5.773-8.269-3.097-18.995-11.834-14.311zM545.336 442.739c4.957 23.427-0.311 52.083-24.392 82.682-49.698 63.15 19.685 164.28 136.015 192.393 10.974 2.652 16.235-13.424 5.979-18.271-3.295-1.557-9.211-4.61-16.867-9.003-12.786-7.337-25.57-15.706-37.458-24.932-42.107-32.68-61.376-66.411-48.151-98.72 1.863-4.551 3.81-8.875 7.032-15.75 6.267-13.369 7.29-15.612 9.63-21.457 8.123-20.292 10.221-36.989 4.759-54.783-10.769-35.080-19.134-48.673-27.623-50.151-7.179-1.249-12.91 6.14-10.209 13.162 0.25 0.651 0.748 2.297 1.284 4.83zM662.662 310.144c2.408 1.415 6.73 4.108 12.321 7.852 9.334 6.252 18.664 13.115 27.337 20.349 16.461 13.731 28.482 27.107 34.073 38.93 2.239 4.735 3.342 9.027 3.342 12.83 0 15.379-8.936 28.455-24.507 39.326-9.843 6.872-19.792 11.281-26.142 13.286-10.437 3.295-7.889 19.335 3.014 18.97 2.886-0.097 7.702-0.501 13.828-1.426 10.196-1.54 20.408-4.044 30.038-7.763 29.415-11.361 47.685-31.733 46.977-62.624-0.691-30.155-22.686-54.549-58.070-74.382-12.085-6.773-24.967-12.543-37.843-17.344-7.737-2.885-13.794-4.818-17.352-5.811-10.59-2.955-16.56 12.196-7.016 17.805zM310.8 421.47c9.349 7.238 23.698 14.584 41.913 22.072 10.992 4.519 22.729 8.811 34.461 12.747 7.039 2.362 12.529 4.085 15.704 5.030 10.978 3.268 16.916-12.882 6.636-18.051-31.805-15.991-47.136-28.411-47.279-33.105-0.038-1.23 9.601-5.557 29.335-7.971 39.95-4.886 111.298-1.756 184.698 6.399 4.072 0.453 8.297 0.995 12.661 1.622 11.168 1.605 23.028 3.731 35.251 6.25 10.153 2.093 19.981 4.336 29.1 6.578 5.459 1.342 9.455 2.382 11.609 2.969 8.909 2.425 15.456-8.6 9.373-15.785-52.522-62.038-293.752-64.253-362.784-28.89-19.766 10.184-17.579 27.049-0.678 40.134zM556.463 242.386c9.221 1.553 19.065 3.761 29.2 6.456 12.717 3.381 23.25 6.762 29.462 8.986 8.484 3.037 15.802-6.9 10.763-14.614-28.954-44.321-170.974-53.718-224.123-29.984-13.769 6.149-23.724 15.194-30.159 26.333-7.033 12.175-9.013 24.724-8.277 35.285 0.095 1.162 0.095 1.162 0.151 1.618 1.118 8.698 11.895 11.503 16.828 4.379 20.011-28.902 97.689-46.865 163.324-40.21 4.324 0.441 8.483 1.018 12.831 1.75zM611.116 305.67c-13.672-3.219-28.53-6.437-44.066-9.441-23.522-4.548-46.479-8.193-68.101-10.604-51.159-5.704-90.287-4.154-113.82 7.297-2.954 1.437-5.685 2.908-8.199 4.413-28.656 17.158-28.889 39.385-11.394 57.161 3.941 4.004 7.837 6.905 10.648 8.617 8.721 5.311 18.211-5.563 12.273-14.063-4.203-6.015-0.156-10.225 20.553-15.32 20.968-5.159 52.993-7.841 92.866-8.393 29.017-0.402 60.163 0.335 90.923 1.811 14.986 0.719 26.445 1.437 32.884 1.914 5.402 0.4 9.997-4.046 9.997-9.672 0-4.441-2.896-8.311-7.033-9.404-3.298-0.871-9.311-2.381-17.531-4.316zM677.698 187.443c18.161 3.799 33.299 7.855 45.541 11.893 7.208 2.377 11.78 4.182 13.846 5.139 7.525 3.487 15.39-4.129 12.572-12.173-27.378-78.145-452.418-94.455-498.979-28.962-10.329 14.529-7.815 29.254 4.767 40.336 8.674 7.641 21.941 13.685 38.792 18.694 9.799 2.912 20.231 5.291 30.655 7.185 6.254 1.137 11.143 1.864 14 2.219 10.307 1.279 14.622-13.256 5.413-18.232-18.778-10.146-30.309-18.578-34.241-24.533-1.547-2.343-1.597-2.219 4.206-4.964 19.703-9.318 73.525-14.087 164.815-14.087 80.717 0.012 146.469 6.578 198.612 17.485z" />
<glyph unicode="&#xe954;" glyph-name="dock" d="M337.768 700.198v-504.396h348.465v504.396h-348.465zM737.433 725.798v-555.596c0-14.138-11.462-25.6-25.6-25.6h-399.665c-14.138 0-25.6 11.462-25.6 25.6v555.596c0 14.138 11.462 25.6 25.6 25.6h399.665c14.138 0 25.6-11.462 25.6-25.6zM687.619 410.064h-352.641v-51.2h352.641z" />
<glyph unicode="&#xe955;" glyph-name="undock" d="M753.775 721.259v-546.519h-278.013v45.035h-51.2v-70.635c0-14.138 11.462-25.6 25.6-25.6h329.213c14.138 0 25.6 11.462 25.6 25.6v597.719c0 14.138-11.462 25.6-25.6 25.6h-329.213c-14.138 0-25.6-11.462-25.6-25.6v-219.457h51.2v193.857h278.013zM238.224 476.318v-209.966h388.466v209.966h-388.466zM677.891 501.918v-261.166c0-14.138-11.462-25.6-25.6-25.6h-439.666c-14.138 0-25.6 11.462-25.6 25.6v261.166c0 14.138 11.462 25.6 25.6 25.6h439.666c14.138 0 25.6-11.462 25.6-25.6z" />
<glyph unicode="&#xe956;" glyph-name="linux" d="M504.458 845.437v0c2.321 0.006 5.144 0.028 7.543 0.027 2.552 0 4.692-0.023 7.543-0.023 54.811-1.773 110.567-14.576 148.126-69.259 41.010-59.707 29.657-113.482 31.298-132.458s124.307-239.846 107.979-271.377c-9.124-17.621-49.723 10.523-50.544-14.491s39.683-275.321-242.29-275.321c-0.694 0.007-1.388-0.001-2.12 0-0.682 0-1.373 0-2.102 0-281.972 0-241.474 250.307-242.294 275.321s-41.419-3.13-50.544 14.491c-16.328 31.531 106.338 252.402 107.979 271.377s-9.712 72.751 31.298 132.458c37.558 54.682 93.317 67.482 148.126 69.255zM420.103 709.154c-14.909 0-26.995-12.705-26.995-28.377s12.086-28.377 26.995-28.377c14.909 0 26.995 12.705 26.995 28.377s-12.086 28.377-26.995 28.377zM603.898 709.154c-14.909 0-26.995-12.705-26.995-28.377s12.086-28.377 26.995-28.377c14.909 0 26.995 12.705 26.995 28.377s-12.086 28.377-26.995 28.377zM402.769 580.3c-0.992-0.034-1.95-0.121-2.876-0.269-29.656-4.72-5.071-51.505-17.706-85.901-31.804-86.576-74.542-220.697-28.924-298.769 14.182-24.271 47.13-65.925 151.362-67.302 2.463-0.017 4.867-0.047 7.377-0.052 2.508 0.004 4.911 0.035 7.372 0.052 104.236 1.375 137.188 43.030 151.371 67.302 45.618 78.072 2.88 212.192-28.924 298.769-12.635 34.396 11.949 81.181-17.706 85.901-26.829 4.27-82.094-40.673-106.804-49.283-2.396-0.675-3.47-1.302-5.308-1.302s-2.76 0.584-5.308 1.302c-23.858 8.315-76.194 50.49-103.923 49.552z" />
<glyph unicode="&#xe957;" glyph-name="play" d="M251.932 652.266c0.003 105.863 74.567 148.937 166.299 96.35l358.009-205.236c91.842-52.65 91.73-138.080-0.005-190.672l-358.020-205.255c-91.845-52.655-166.297-9.093-166.294 96.341l0.011 408.473z" />
<glyph unicode="&#xe958;" glyph-name="windows" d="M176.309 216.297l262.053-36.108v250.141h-262.053zM176.309 462.602h262.053v253.208l-262.053-36.108zM467.184 176.344l348.507-48.032v302.018h-348.507zM467.184 462.602h348.507v305.086l-348.507-48.035z" />
<glyph unicode="&#xe959;" glyph-name="thumbdown" d="M680.965 319.413c-2.223-0.996-4.628-1.671-7.16-1.963-74.215-38.694-148.286-112.594-221.642-222.060-17.963-26.806-54.256-33.974-81.061-16.011-10.41 6.976-18.301 17.114-22.509 28.917-17.202 48.255-14.127 101.419 8.525 147.369l15.315 31.067-105.794-10.783c-57.928-5.904-109.674 36.269-115.578 94.197-1.574 15.442 0.281 31.040 5.433 45.682l67.204 191.010c28.395 80.704 108.051 131.746 193.237 123.821l219.537-20.424c9.558-0.889 18.471-3.821 26.325-8.341 15.47 21.384 40.631 35.298 69.042 35.298h57.519c47.030 0 85.156-38.126 85.156-85.156v-264.329c0-47.030-38.126-85.156-85.156-85.156h-57.519c-19.072 0-36.679 6.27-50.874 16.86zM789.358 351.213c20.156 0 36.495 16.34 36.495 36.495v264.329c0 20.156-16.34 36.495-36.495 36.495h-57.519c-20.156 0-36.495-16.34-36.495-36.495v-264.329c0-20.156 16.34-36.495 36.495-36.495h57.519zM646.683 645.635c0 8.376-6.378 15.375-14.718 16.15l-219.537 20.424c-62.964 5.857-121.84-31.869-142.827-91.52l-67.204-191.010c-2.774-7.884-3.773-16.283-2.925-24.598 3.179-31.192 31.042-53.901 62.234-50.722l149.516 15.239c19.022 1.939 32.744-17.813 24.29-34.963l-34.748-70.486c-16.833-34.146-19.119-73.654-6.335-109.513 0.703-1.973 2.022-3.667 3.762-4.834 4.481-3.003 10.547-1.804 13.549 2.676 76.065 113.508 154.2 192.177 234.944 235.668v287.488z" />
<glyph unicode="&#xe95a;" glyph-name="thumbup" d="M343.036 576.587c2.223 0.996 4.628 1.671 7.16 1.963 74.215 38.694 148.286 112.594 221.642 222.060 17.963 26.806 54.256 33.974 81.061 16.011 10.41-6.976 18.301-17.114 22.509-28.917 17.202-48.255 14.127-101.419-8.525-147.369l-15.315-31.067 105.794 10.783c57.928 5.904 109.674-36.269 115.578-94.197 1.574-15.442-0.281-31.040-5.433-45.682l-67.204-191.010c-28.395-80.704-108.051-131.746-193.237-123.821l-219.537 20.424c-9.558 0.889-18.471 3.821-26.325 8.341-15.47-21.384-40.631-35.298-69.042-35.298h-57.519c-47.030 0-85.156 38.126-85.156 85.156v264.329c0 47.030 38.126 85.156 85.156 85.156h57.519c19.072 0 36.679-6.27 50.874-16.86zM234.643 544.787c-20.156 0-36.495-16.34-36.495-36.495v-264.329c0-20.156 16.34-36.495 36.495-36.495h57.519c20.156 0 36.495 16.34 36.495 36.495v264.329c0 20.156-16.34 36.495-36.495 36.495h-57.519zM377.318 250.365c0-8.376 6.378-15.375 14.718-16.15l219.537-20.424c62.964-5.857 121.84 31.869 142.827 91.52l67.204 191.010c2.774 7.884 3.773 16.283 2.925 24.598-3.179 31.192-31.042 53.901-62.234 50.722l-149.516-15.239c-19.022-1.939-32.744 17.813-24.29 34.963l34.748 70.486c16.833 34.146 19.119 73.654 6.335 109.513-0.703 1.973-2.022 3.667-3.762 4.834-4.481 3.003-10.547 1.804-13.549-2.676-76.065-113.508-154.2-192.177-234.944-235.668v-287.488z" />
<glyph unicode="&#xe95b;" glyph-name="bell" d="M749.080 530.254c-5.424 124.205-107.698 222.111-232.022 222.111h-10.117c-124.324 0-226.598-97.905-232.022-222.111l-13.259-303.608h500.678l-13.259 303.608zM565.356 799.876c129.337-22.194 229.373-132.002 235.285-267.371l14.435-330.539c0.641-14.679-11.087-26.931-25.78-26.931h-246.981v-85.275c0-14.252-11.553-25.805-25.805-25.805s-25.805 11.553-25.805 25.805v85.275h-256c-14.693 0-26.421 12.251-25.78 26.931l14.435 330.539c5.913 135.394 105.985 245.218 235.358 267.383-1.003 4.017-1.536 8.219-1.536 12.547 0 28.503 23.106 51.61 51.61 51.61h6.495c28.503 0 51.61-23.106 51.61-51.61 0-4.332-0.534-8.539-1.539-12.559z" />
<glyph unicode="&#xe95c;" glyph-name="logout" d="M474.279 467.797h-241.953c-14.138 0-25.6 11.462-25.6 25.6s11.462 25.6 25.6 25.6h241.953c14.138 0 25.6-11.462 25.6-25.6s-11.462-25.6-25.6-25.6zM221.737 493.101l57.628-68.23c9.123-10.801 7.762-26.953-3.039-36.076s-26.953-7.762-36.076 3.039l-71.579 84.749c-8.057 9.539-8.057 23.498 0 33.037l71.579 84.749c9.123 10.801 25.275 12.162 36.076 3.039s12.162-25.275 3.039-36.076l-57.628-68.23zM461.518 716.447l-71.382-97.878c-8.331-11.423-24.345-13.93-35.768-5.599s-13.93 24.345-5.599 35.768l79.051 108.394c4.819 6.608 12.505 10.515 20.684 10.515h282.614c37.703 0 68.267-30.564 68.267-68.267v-470.761c0-37.703-30.564-68.267-68.267-68.267h-318.998c-37.703 0-68.267 30.564-68.267 68.267v109.9c0 14.138 11.462 25.6 25.6 25.6s25.6-11.462 25.6-25.6v-109.9c0-9.426 7.641-17.067 17.067-17.067h318.998c9.426 0 17.067 7.641 17.067 17.067v470.761c0 9.426-7.641 17.067-17.067 17.067h-269.599z" />
<glyph unicode="&#xe95d;" glyph-name="doc" d="M302.934 682.73v-469.461c0-9.396 7.582-17.003 16.878-17.003h384.377c9.326 0 16.878 7.579 16.878 17.003v469.461c0 9.396-7.582 17.003-16.878 17.003h-384.377c-9.326 0-16.878-7.579-16.878-17.003zM251.734 682.73c0 37.66 30.434 68.203 68.078 68.203h384.377c37.611 0 68.078-30.566 68.078-68.203v-469.461c0-37.66-30.434-68.203-68.078-68.203h-384.377c-37.611 0-68.078 30.566-68.078 68.203v469.461zM618.667 430.933h-85.333c-14.138 0-25.6-11.462-25.6-25.6s11.462-25.6 25.6-25.6h85.333c14.138 0 25.6 11.462 25.6 25.6s-11.462 25.6-25.6 25.6zM618.667 324.266h-213.333c-14.138 0-25.6-11.462-25.6-25.6s11.462-25.6 25.6-25.6h213.333c14.138 0 25.6 11.462 25.6 25.6s-11.462 25.6-25.6 25.6zM397.898 465.343c-9.997-9.997-9.997-26.206 0-36.204s26.206-9.997 36.204 0l75.425 75.425c9.997 9.997 9.997 26.206 0 36.204l-75.425 75.425c-9.997 9.997-26.206 9.997-36.204 0s-9.997-26.206 0-36.204l57.323-57.323-57.323-57.323z" />
<glyph unicode="&#xe95e;" glyph-name="legal" d="M710.833 569.341h-134.892c-14.138 0-25.6 11.462-25.6 25.6v112.674h-220.107c-9.426 0-17.067-7.641-17.067-17.067v-485.097c0-9.426 7.641-17.067 17.067-17.067h363.533c9.426 0 17.067 7.641 17.067 17.067v363.889zM601.541 681.679v-61.139h73.017l-73.017 61.139zM762.033 582.198v-376.746c0-37.703-30.564-68.267-68.267-68.267h-363.533c-37.703 0-68.267 30.564-68.267 68.267v485.097c0 37.703 30.564 68.267 68.267 68.267h234.131c16.025 0 31.539-5.638 43.826-15.925l129.402-108.351c15.491-12.971 24.441-32.137 24.441-52.341zM632.676 501.572h-257.017c-14.138 0-25.6-11.462-25.6-25.6s11.462-25.6 25.6-25.6h257.017c14.138 0 25.6 11.462 25.6 25.6s-11.462 25.6-25.6 25.6zM526.216 398.351h-152.056c-14.138 0-25.6-11.462-25.6-25.6s11.462-25.6 25.6-25.6h152.056c14.138 0 25.6 11.462 25.6 25.6s-11.462 25.6-25.6 25.6z" />
<glyph unicode="&#xe95f;" glyph-name="tutorial" d="M547.102 650.286c-14.46 6.028-30.678 6.29-45.325 0.732l-236.693-89.816 243.813-101.64c14.46-6.028 30.678-6.29 45.325-0.732l236.693 89.816-243.813 101.64zM567.315 698.773l270.882-112.925c20.828-8.683 30.673-32.605 21.991-53.433-4.321-10.365-12.717-18.495-23.216-22.479l-264.112-100.221c-27.201-10.322-57.322-9.835-84.175 1.359l-270.882 112.925c-20.828 8.683-30.673 32.605-21.991 53.433 4.321 10.365 12.717 18.495 23.216 22.479l264.112 100.221c27.201 10.322 57.322 9.835 84.175-1.359zM672.588 474.198l3.026-136.18c0.246-11.066-5.226-21.478-14.48-27.551-41.631-27.324-83.739-40.065-126.905-38.716-44.85 1.402-90.208 18.006-136.394 50.398-8.362 5.865-13.434 15.358-13.661 25.569l-2.958 133.096-52.518-1.167 2.958-133.096c0.598-26.92 13.97-51.949 36.015-67.41 54.173-37.995 109.251-58.156 164.916-59.896 54.332-1.699 106.982 14.233 157.37 47.304 24.396 16.012 38.822 43.462 38.174 72.635l-3.026 136.18-52.518-1.167zM263.068 332.014v193.451c0 9.671-7.84 17.51-17.51 17.51s-17.51-7.84-17.51-17.51v-193.451c0-9.671 7.84-17.51 17.51-17.51s17.51 7.84 17.51 17.51z" />
<glyph unicode="&#xe960;" glyph-name="dashboard" d="M533.934 407.884c11.381-5.654 25.143-2.933 33.515 6.628l114.943 131.256c10.185 11.631 9.014 29.317-2.617 39.502s-29.317 9.014-39.502-2.617l-100.738-115.035-99.85 49.608c-9.056 4.499-19.835 3.765-28.197-1.922l-87.056-59.202c-12.784-8.694-16.1-26.106-7.406-38.89s26.106-16.1 38.89-7.406l73.519 49.996 104.5-51.918zM325.333 270.672h376.188c15.46 0 27.994 12.533 27.994 27.994s-12.533 27.994-27.994 27.994h-376.188c-15.46 0-27.994-12.533-27.994-27.994s12.533-27.994 27.994-27.994zM290.133 719.786c-27.57 0-49.92-22.35-49.92-49.92v-443.733c0-27.57 22.35-49.92 49.92-49.92h443.733c27.57 0 49.92 22.35 49.92 49.92v443.733c0 27.57-22.35 49.92-49.92 49.92h-443.733zM290.133 773.546h443.733c57.261 0 103.68-46.419 103.68-103.68v-443.733c0-57.261-46.419-103.68-103.68-103.68h-443.733c-57.261 0-103.68 46.419-103.68 103.68v443.733c0 57.261 46.419 103.68 103.68 103.68z" />
<glyph unicode="&#xe961;" glyph-name="promote" d="M889.557 805.075c-2.559 10.239-10.234 17.919-20.468 20.479-113.855 23.039-234.106-16.639-312.141-103.674l-56.288-62.716c-39.657 7.68-111.296 15.359-171.422-17.919-47.333-25.598-79.314-71.676-94.666-134.392-2.559-8.959 0-17.919 6.396-24.319s15.351-8.959 24.306-6.4c17.91 3.84 47.333 8.959 80.594 11.519l-15.351-16.639c-8.955-10.239-8.955-25.598 1.279-35.838l168.863-168.95c5.117-5.12 11.513-7.68 17.91-7.68s12.793 2.56 16.63 6.4l16.63 15.359c-2.559-29.438-6.396-57.597-11.513-80.635-2.559-8.959 1.279-17.919 6.396-24.319 5.117-5.12 11.513-7.68 17.91-7.68 2.559 0 3.838 0 6.396 1.28 62.684 15.359 107.458 47.357 134.323 94.714 33.261 61.436 26.865 131.832 17.91 171.51l62.684 56.317c86.99 79.355 126.647 199.668 103.62 313.581zM297.258 533.732c12.793 28.158 31.982 48.637 56.288 62.716 34.54 19.199 74.197 20.479 106.179 17.919l-65.242-72.956c-1.279 0-3.838 0-5.117 0-34.54 0-67.801-3.84-92.107-7.68zM660.569 289.266c-12.793-24.319-34.54-43.517-62.684-56.317 3.838 25.598 7.676 60.156 7.676 95.994l72.918 65.276c2.559-30.718 1.279-70.396-17.91-104.954zM751.397 531.172l-232.826-211.187-134.323 134.392 211.079 232.946c62.684 69.116 156.070 102.394 246.898 90.875 12.793-90.875-21.747-185.589-90.828-247.025zM263.997 351.983l-103.62-25.598c-2.559 0-3.838-1.28-6.396-1.28-12.793 0-23.027 8.959-25.585 21.759s7.676 25.598 20.468 29.438l102.341 25.598c8.955 2.56 17.91 0 24.306-6.4v0c14.072-14.079 7.676-38.398-11.513-43.517zM459.724 211.191c6.396-6.4 8.955-15.359 6.396-24.319l-25.585-103.674c-2.559-11.519-12.793-19.199-24.306-19.199-3.838 0-8.955 1.28-14.072 3.84-10.234 6.4-14.072 17.919-11.513 29.438l25.585 101.114c5.117 20.479 29.423 26.878 43.495 12.799v0zM367.617 303.346c10.234-10.239 10.234-25.598 0-35.838l-136.881-136.952c-5.117-5.12-11.513-7.68-17.91-7.68-7.676 0-14.072 2.56-19.189 8.959-8.955 10.239-7.676 25.598 2.559 35.838l135.602 135.672c8.955 10.239 25.585 10.239 35.819 0zM658.010 701.402c-29.423-29.438-29.423-78.075 0-107.514 15.351-15.359 34.54-21.759 53.729-21.759s39.657 7.68 53.729 21.759c29.423 29.438 29.423 78.075 0 107.514s-78.035 29.438-107.458 0zM729.649 629.726c-10.234-10.239-25.585-10.239-35.819 0s-10.234 25.598 0 35.838c5.117 5.12 11.513 7.68 17.91 7.68s12.793-2.56 17.91-7.68c10.234-10.239 10.234-25.598 0-35.838z" />
<glyph unicode="&#xe962;" glyph-name="open" d="M735.359 689.413h-136.59c-15.1 0-27.341 12.241-27.341 27.341s12.241 27.341 27.341 27.341h207.666c15.1 0 27.341-12.241 27.341-27.341v-210.707c0-15.1-12.241-27.341-27.341-27.341s-27.341 12.241-27.341 27.341v149.769l-170.328-170.328c-10.677-10.677-27.988-10.677-38.666 0s-10.677 27.988 0 38.666l165.259 165.259zM417.317 645.297h-126.723c-9.432 0-17.17-7.726-17.17-16.98v-376.232c0-9.273 7.71-16.98 16.799-16.98h422.733c9.078 0 16.799 7.801 16.799 16.949v63.565c0 14.138 11.462 25.6 25.6 25.6s25.6-11.462 25.6-25.6v-63.565c0-37.309-30.526-68.149-67.999-68.149h-422.733c-37.36 0-67.999 30.623-67.999 68.18v376.232c0 37.55 30.68 68.18 68.37 68.18h126.723c14.138 0 25.6-11.462 25.6-25.6s-11.462-25.6-25.6-25.6z" />
<glyph unicode="&#xe963;" glyph-name="side-panel" d="M614.4 683.42h-401.029c-9.527 0-17.104-7.598-17.104-17.121v-436.598c0-9.417 7.691-17.121 17.104-17.121h401.029v470.839zM665.6 683.42v-470.839h145.029c9.527 0 17.104 7.598 17.104 17.121v436.598c0 9.417-7.691 17.121-17.104 17.121h-145.029zM145.067 666.299c0 37.768 30.468 68.321 68.304 68.321h597.259c37.707 0 68.304-30.644 68.304-68.321v-436.598c0-37.768-30.468-68.321-68.304-68.321h-597.259c-37.707 0-68.304 30.644-68.304 68.321v436.598z" />
<glyph unicode="&#xe964;" glyph-name="bookmark" d="M362.667 719.296c-32.99 0-59.733-26.744-59.733-59.733v-478.591c0-1.073 0.404-2.107 1.132-2.895 1.599-1.731 4.298-1.838 6.029-0.239l170.060 157.078c17.981 16.609 45.708 16.609 63.69 0l170.060-157.078c0.788-0.728 1.822-1.132 2.895-1.132 2.356 0 4.267 1.91 4.267 4.267v478.591c0 32.99-26.744 59.733-59.733 59.733h-298.667zM344.835 140.226c-22.503-20.785-57.595-19.392-78.38 3.11-9.465 10.247-14.721 23.685-14.721 37.635v478.591c0 61.267 49.667 110.933 110.933 110.933h298.667c61.267 0 110.933-49.667 110.933-110.933v-478.591c0-30.633-24.833-55.467-55.467-55.467-13.95 0-27.387 5.256-37.635 14.721l-167.165 154.404-167.165-154.404z" />
<glyph unicode="&#xe965;" glyph-name="q-score" d="M246.971 695.128v-494.257c0-9.876 8.023-17.901 17.901-17.901h494.257c9.876 0 17.901 8.023 17.901 17.901v494.257c0 9.876-8.023 17.901-17.901 17.901h-494.257c-9.876 0-17.901-8.023-17.901-17.901zM193.067 695.128c0 39.653 32.164 71.805 71.805 71.805h494.257c39.653 0 71.805-32.164 71.805-71.805v-494.257c0-39.653-32.164-71.805-71.805-71.805h-494.257c-39.653 0-71.805 32.164-71.805 71.805v494.257zM507.442 298.99c-22.666 0-43.21 3.875-61.634 11.626s-34.142 18.608-47.158 32.572c-13.013 13.964-23.104 30.67-30.268 50.118s-10.748 40.943-10.748 64.486c0 25.151 3.619 47.961 10.857 68.434s17.547 37.946 30.927 52.422c13.38 14.476 29.648 25.663 48.802 33.559s40.578 11.844 64.266 11.844c21.933 0 41.967-3.875 60.097-11.626s33.632-18.608 46.499-32.572c12.868-13.964 22.847-30.67 29.94-50.118s10.638-40.869 10.638-64.266c0-31.001-5.191-58.161-15.574-81.484s-25.004-42.075-43.867-56.259l91.245-65.802h-79.401l-56.149 43.648c-7.457-2.046-15.206-3.656-23.249-4.825s-16.451-1.755-25.224-1.755zM509.854 578.206c-14.329 0-27.454-2.816-39.372-8.445s-22.19-13.599-30.817-23.908c-8.626-10.31-15.317-22.629-20.069-36.958s-7.129-30.268-7.129-47.815c0-17.4 2.303-33.265 6.908-47.596s11.077-26.577 19.412-36.74c8.335-10.163 18.35-18.059 30.050-23.688s24.639-8.445 38.823-8.445c15.062 0 28.587 2.632 40.578 7.896s22.19 12.831 30.599 22.7c8.408 9.871 14.878 21.97 19.411 36.301s6.8 30.633 6.8 48.912c0 18.716-2.193 35.387-6.58 50.008s-10.675 26.942-18.863 36.958c-8.188 10.016-18.169 17.657-29.94 22.921s-25.041 7.896-39.81 7.896z" />
<glyph unicode="&#xe966;" glyph-name="version" d="M417.327 644.786h-181.943c-9.049 0-16.384-7.335-16.384-16.384v-431.495c0-9.049 7.335-16.384 16.384-16.384h475.055c9.049 0 16.384 7.335 16.384 16.384v351.311c0 9.049-7.335 16.384-16.384 16.384h-220.080c-7.688 0-14.933 3.598-19.579 9.723l-53.453 70.461zM775.975 221.569h12.643c9.049 0 16.384 7.335 16.384 16.384v360.475c0 20.359-16.505 36.864-36.864 36.864h-191.016c-7.688 0-14.933 3.598-19.579 9.723l-53.453 70.461h-181.943c-9.049 0-16.384-7.335-16.384-16.384v-5.154h123.768c7.688 0 14.933-3.598 19.579-9.723l53.453-70.461h207.876c36.195 0 65.536-29.341 65.536-65.536v-326.649zM771.246 172.417c-9.701-24.063-33.27-41.046-60.807-41.046h-475.055c-36.195 0-65.536 29.341-65.536 65.536v431.495c0 36.195 29.341 65.536 65.536 65.536h21.226v5.154c0 36.195 29.341 65.536 65.536 65.536h194.146c7.688 0 14.933-3.598 19.579-9.723l53.453-70.461h178.812c47.505 0 86.016-38.511 86.016-86.016v-360.475c0-36.195-29.341-65.536-65.536-65.536h-17.372zM450.077 469.232h-135.161c-13.573 0-24.576-11.003-24.576-24.576s11.003-24.576 24.576-24.576h135.161c13.573 0 24.576 11.003 24.576 24.576s-11.003 24.576-24.576 24.576zM510.266 388.537h-196.484c-13.573 0-24.576-11.003-24.576-24.576s11.003-24.576 24.576-24.576h196.484c13.573 0 24.576 11.003 24.576 24.576s-11.003 24.576-24.576 24.576z" />
</font>
</defs>
</svg>
